<svg width="998" height="1024" xmlns="http://www.w3.org/2000/svg" p-id="13579" version="1.1" class="icon" t="1676878645762">
 <g id="Layer_1">
  <title>Layer 1</title>
  <g stroke="null">
   <path stroke="null" p-id="13580" fill="#4E4D4D" d="m562.09575,375.17138c45.90847,0 83.25729,37.34882 83.25729,83.25729s-37.34882,83.25729 -83.25729,83.25729s-83.25728,-37.34882 -83.25728,-83.25729s37.34882,-83.25729 83.25728,-83.25729m0,-38.6548c-67.33067,0 -121.91208,54.58246 -121.91208,121.91209s54.58246,121.91208 121.91208,121.91208s121.91209,-54.58246 121.91209,-121.91208s-54.58142,-121.91209 -121.91209,-121.91209z"/>
   <path stroke="null" p-id="13581" fill="#4E4D4D" d="m562.09575,140.26665c42.96924,0 84.63146,8.4065 123.83172,24.98663c37.8817,16.02312 71.91156,38.96844 101.14339,68.20132c29.23184,29.23184 52.17821,63.2617 68.20133,101.1434c16.58013,39.19921 24.98663,80.86248 24.98663,123.83171s-8.4065,84.63146 -24.98663,123.83172c-16.02312,37.8817 -38.96844,71.91156 -68.20133,101.14339c-29.23183,29.23184 -63.26169,52.17821 -101.14339,68.20133c-39.19921,16.58013 -80.86248,24.98663 -123.83172,24.98663s-84.63145,-8.4065 -123.83171,-24.98663c-37.8817,-16.02312 -71.91156,-38.96844 -101.14339,-68.20133c-29.23184,-29.23183 -52.17821,-63.2617 -68.20133,-101.14339c-16.58013,-39.19922 -24.98663,-80.86248 -24.98663,-123.83172s8.4065,-84.63145 24.98663,-123.83171c16.02312,-37.8817 38.96844,-71.91156 68.20133,-101.1434s63.26169,-52.1782 101.14339,-68.20132c39.20027,-16.58013 80.86248,-24.98663 123.83171,-24.98663m0,-38.6548c-197.06498,0 -356.81681,159.75288 -356.81681,356.81682s159.75288,356.81681 356.81681,356.81681s356.81682,-159.75183 356.81682,-356.81681s-159.75183,-356.81682 -356.81682,-356.81682z"/>
   <path stroke="null" p-id="13582" fill="#4E4D4D" d="m562.09575,174.68987c6.49736,0 12.93808,0.23917 19.3274,0.6682l0,-112.45871l-38.65479,0l0,112.45871c6.38827,-0.42903 12.82898,-0.6682 19.32739,-0.6682zm19.3274,52.4415a258.72594,258.72594 0 0 0 -38.65479,0l0,211.97095l-211.97095,0a258.72594,258.72594 0 0 0 0,38.65479l211.97095,0l0,201.48118a258.72594,258.72594 0 0 0 38.65479,0l0,-201.48223l211.9699,0a258.72594,258.72594 0 0 0 0,-38.6548l-211.9699,0l0,-211.9699zm263.74215,211.9699c0.43007,6.38827 0.6682,12.83004 0.6682,19.3274s-0.23917,12.93808 -0.6682,19.3274l112.45871,0l0,-38.6548l-112.45871,0zm-566.80834,19.3274c0,-6.49736 0.23917,-12.93808 0.66924,-19.3274l-112.45975,0l0,38.6548l112.45975,0c-0.43007,-6.38827 -0.66924,-12.83004 -0.66924,-19.3274zm283.73879,283.73879c-6.49736,0 -12.93807,-0.23917 -19.32739,-0.6682l0,112.45871l38.65479,0l0,-112.45871c-6.38932,0.42904 -12.83004,0.6682 -19.3274,0.6682z"/>
  </g>
  <g stroke="null">
   <path stroke="null" p-id="9638" fill="#5C5C66" d="m378.15816,779.80065l-289.67685,-174.78002a24.97214,24.97214 0 0 0 -37.86401,21.3824l0,349.56005a24.91284,24.91284 0 0 0 37.87337,21.3824l289.67685,-174.78002a24.97214,24.97214 0 0 0 0,-42.7648l-0.00936,0z"/>
  </g>
 </g>

</svg>