<svg width="80" height="80" viewBox="0 0 80 80" fill="none" xmlns="http://www.w3.org/2000/svg">
<g opacity="0.6">
<path d="M13 10H67L76 30H4L13 10Z" fill="url(#paint0_linear)"/>
<path d="M14 11H66L74 30H6L14 11Z" fill="#C4C4C4"/>
<path d="M14 11H66L74 30H6L14 11Z" fill="url(#paint1_linear)"/>
<rect x="14" y="11" width="52" height="31" fill="#C4C4C4"/>
<rect x="14" y="11" width="52" height="31" fill="url(#paint2_linear)"/>
<g filter="url(#filter0_i)">
<path d="M4 30H22L30 39H50L58 30H76V69C76 69.5523 75.5523 70 75 70H5C4.44772 70 4 69.5523 4 69V30Z" fill="#C4C4C4"/>
<path d="M4 30H22L30 39H50L58 30H76V69C76 69.5523 75.5523 70 75 70H5C4.44772 70 4 69.5523 4 69V30Z" fill="#50597C"/>
</g>
<rect x="16" y="46" width="48" height="5" rx="2.5" fill="#7781A8"/>
<rect x="16" y="55" width="48" height="5" rx="2.5" fill="#7781A8"/>
</g>
<defs>
<filter id="filter0_i" x="4" y="30" width="72" height="40" filterUnits="userSpaceOnUse" color-interpolation-filters="sRGB">
<feFlood flood-opacity="0" result="BackgroundImageFix"/>
<feBlend mode="normal" in="SourceGraphic" in2="BackgroundImageFix" result="shape"/>
<feColorMatrix in="SourceAlpha" type="matrix" values="0 0 0 0 0 0 0 0 0 0 0 0 0 0 0 0 0 0 127 0" result="hardAlpha"/>
<feOffset dy="1.5"/>
<feComposite in2="hardAlpha" operator="arithmetic" k2="-1" k3="1"/>
<feColorMatrix type="matrix" values="0 0 0 0 0.941667 0 0 0 0 0.993 0 0 0 0 1 0 0 0 0.2 0"/>
<feBlend mode="normal" in2="shape" result="effect1_innerShadow"/>
</filter>
<linearGradient id="paint0_linear" x1="35.95" y1="-2" x2="35.95" y2="30" gradientUnits="userSpaceOnUse">
<stop stop-color="#434D70"/>
<stop offset="1" stop-color="#707A96"/>
</linearGradient>
<linearGradient id="paint1_linear" x1="36" y1="11" x2="35.5" y2="39" gradientUnits="userSpaceOnUse">
<stop stop-color="#434D70"/>
<stop offset="1" stop-color="#2F3857"/>
</linearGradient>
<linearGradient id="paint2_linear" x1="40" y1="42" x2="40" y2="9.45" gradientUnits="userSpaceOnUse">
<stop stop-color="#273050"/>
<stop offset="1" stop-color="#656F95"/>
</linearGradient>
</defs>
</svg>
