<svg width="17" height="19" viewBox="0 0 17 19" fill="none" xmlns="http://www.w3.org/2000/svg">
<path d="M9.32258 2.09597C9.32258 2.51241 8.98499 2.85 8.56855 2.85C8.15211 2.85 7.81452 2.51241 7.81452 2.09597V0.754033C7.81452 0.337592 8.15211 0 8.56855 0C8.98499 0 9.32258 0.337592 9.32258 0.754032V2.09597ZM2.5354 5.22687C2.22417 5.53689 1.71753 5.52575 1.42022 5.20236L0.502873 4.2045C0.221945 3.89892 0.23234 3.42607 0.526426 3.13313C0.837656 2.82311 1.3443 2.83425 1.6416 3.15764L2.55895 4.1555C2.83988 4.46108 2.82949 4.93393 2.5354 5.22687ZM15.5348 5.3576C15.236 5.67515 14.7341 5.68331 14.4252 5.37563C14.1285 5.08015 14.1208 4.6023 14.4077 4.29734L15.3577 3.2874C15.6564 2.96985 16.1584 2.96169 16.4673 3.26937C16.7639 3.56485 16.7717 4.0427 16.4848 4.34766L15.5348 5.3576ZM15.7204 17.385V11.59C15.7204 7.41 12.4758 3.99 8.4543 3.99C4.4328 3.99 1.18817 7.41 1.18817 11.59V17.4325H0.0456983V19H16.7715V17.385H15.7204ZM7.95161 8.55C6.80914 8.7875 5.89516 9.69 5.62097 10.925V11.02C5.57527 11.21 5.43817 11.5425 4.79839 11.5425C4.3414 11.5425 4.1586 11.21 4.1129 10.925C4.0672 10.7825 4.1129 10.5925 4.1129 10.45C4.4785 8.835 5.66667 7.5525 7.17473 7.0775C7.26613 7.03 7.35753 7.03 7.44893 7.03C7.76882 7.03 8.3629 7.0775 8.4086 7.6475C8.5 8.4075 7.95161 8.55 7.95161 8.55Z" fill="url(#paint0_linear_86_3324)"/>
<defs>
<linearGradient id="paint0_linear_86_3324" x1="8.5" y1="0" x2="8.5" y2="19" gradientUnits="userSpaceOnUse">
<stop stop-color="#F29755"/>
<stop offset="1" stop-color="#F25E55"/>
</linearGradient>
</defs>
</svg>
