<svg width="26" height="28" viewBox="0 0 26 28" fill="none" xmlns="http://www.w3.org/2000/svg">
<path d="M25.8252 8.75566C26.1843 9.68684 25.9791 10.7732 25.3121 11.4975C24.0296 12.8942 24.0296 15.1187 25.3121 16.5672C25.9791 17.2915 26.1843 18.3778 25.8252 19.309C25.3634 20.4988 24.6965 21.6369 23.927 22.6199C23.3114 23.3958 22.2854 23.758 21.362 23.551C20.4386 23.3441 19.5152 23.4993 18.6944 23.9649C17.8736 24.4305 17.3093 25.2065 17.0014 26.0859C16.6936 27.0688 15.8728 27.7413 14.8981 27.8965C14.2825 27.9483 13.6156 28 13 28C12.3844 28 11.7175 27.9483 11.1019 27.8448C10.1272 27.6896 9.30636 27.0171 8.99855 26.0342C8.43425 24.1718 6.53612 23.0854 4.638 23.4993C3.66329 23.7062 2.68858 23.3441 2.07297 22.5681C1.30346 21.5335 0.636553 20.4471 0.174848 19.2573C-0.184256 18.3261 0.0209462 17.2397 0.687854 16.5155C1.97037 15.1187 1.97037 12.8942 0.687854 11.4457C0.0209462 10.7215 -0.184256 9.6351 0.174848 8.70393C0.636553 7.51409 1.30346 6.37598 2.07297 5.39307C2.68858 4.61709 3.71459 4.25497 4.6893 4.46189C5.61271 4.66882 6.53612 4.51363 7.35693 4.04804C8.17774 3.58245 8.74205 2.80647 9.04985 1.92702C9.35766 0.944111 10.1785 0.271594 11.1532 0.116397C12.3844 -0.0387991 13.6669 -0.0387991 14.9494 0.116397C15.9241 0.271594 16.7449 0.944111 17.0527 1.92702C17.3093 2.80647 17.9249 3.58245 18.7457 4.04804C19.5665 4.51363 20.4899 4.66882 21.4133 4.46189C22.388 4.25497 23.414 4.61709 23.9783 5.39307C24.6965 6.47945 25.3634 7.56582 25.8252 8.75566ZM23.927 9.53164C23.5166 8.54873 22.9523 7.56582 22.2854 6.73811C22.1828 6.58291 21.9776 6.53118 21.7724 6.58291C20.3873 6.8933 18.8996 6.68637 17.6684 5.96212C16.3858 5.23787 15.4624 4.04804 15.052 2.65127C15.0007 2.44434 14.8468 2.28915 14.6416 2.28915C13.5643 2.13395 12.487 2.13395 11.4097 2.28915C11.2045 2.34088 11.0506 2.44434 10.9993 2.65127C10.5889 4.04804 9.66546 5.23787 8.38295 5.96212C7.15173 6.68637 5.66401 6.8933 4.2276 6.58291C4.02239 6.53118 3.81719 6.63464 3.71459 6.73811C3.04768 7.61755 2.48338 8.54873 2.07297 9.53164C2.02167 9.73857 2.02167 9.9455 2.17557 10.1007C4.1763 12.3252 4.1763 15.7395 2.17557 17.964C2.02167 18.1192 2.02167 18.3261 2.07297 18.4813C2.48338 19.5159 3.04768 20.4471 3.66329 21.2748C3.76589 21.43 4.02239 21.4818 4.1763 21.4818C7.10043 20.8092 10.0246 22.5681 10.948 25.4134C10.9993 25.6203 11.1532 25.7238 11.3584 25.7755C11.8714 25.8273 12.4357 25.879 12.9487 25.879C13.513 25.879 14.026 25.8273 14.5903 25.7755C14.7955 25.7238 14.9494 25.6203 15.0007 25.4134C15.4111 24.0166 16.3345 22.8268 17.6171 22.1025C18.8483 21.3783 20.336 21.1714 21.7724 21.4818C21.9776 21.5335 22.1828 21.43 22.2854 21.3266C22.9523 20.4471 23.5166 19.5159 23.927 18.533C23.9783 18.3778 23.9783 18.1192 23.8244 17.964C21.8237 15.7395 21.8237 12.3252 23.8244 10.1007C23.9783 9.9455 23.9783 9.73857 23.927 9.53164ZM12.7948 19.2055C9.97326 19.2055 7.66474 16.8776 7.66474 14.0323C7.66474 11.1871 9.97326 8.85912 12.7948 8.85912C15.6163 8.85912 17.9249 11.1871 17.9249 14.0323C17.9249 16.8776 15.6676 19.2055 12.7948 19.2055ZM12.7948 17.1363C14.4877 17.1363 15.8728 15.7395 15.8728 14.0323C15.8728 12.3252 14.4877 10.9284 12.7948 10.9284C11.1019 10.9284 9.71676 12.3252 9.71676 14.0323C9.71676 15.7395 11.1019 17.1363 12.7948 17.1363Z" fill="#30B4FF"/>
</svg>
