<svg width="27" height="24" viewBox="0 0 27 24" fill="none" xmlns="http://www.w3.org/2000/svg">
<path d="M9.08548 0.42143C8.96416 0.293614 8.81854 0.190667 8.65693 0.118471C8.49532 0.0462763 8.32089 0.00624819 8.14362 0.000674878C7.96634 -0.00489843 7.78969 0.0240922 7.62376 0.08599C7.45783 0.147888 7.30587 0.241479 7.17658 0.361417L0.42657 6.62281L0.31317 6.7415C0.0929902 7.00235 -0.0181507 7.33636 0.00242057 7.67538C0.0229918 8.01441 0.173725 8.33291 0.42387 8.56591L7.17388 14.854L7.30483 14.9607C7.57042 15.152 7.89758 15.2411 8.22492 15.2112C8.55226 15.1812 8.85729 15.0343 9.08278 14.798L9.19078 14.6686C9.38468 14.4064 9.47507 14.0833 9.44499 13.7599C9.41492 13.4365 9.26645 13.1351 9.02743 12.9122L4.46307 8.66193H17.901C18.7422 8.6628 19.575 8.82735 20.3519 9.14617C21.1287 9.465 21.8344 9.93186 22.4286 10.5201C23.0228 11.1083 23.4939 11.8064 23.815 12.5745C24.1361 13.3426 24.3009 14.1657 24.3 14.9967C24.3018 16.6251 23.6683 18.1915 22.5311 19.3703C21.3939 20.5491 19.8405 21.2496 18.1939 21.3261L17.901 21.3327H2.02497C1.68088 21.3331 1.34993 21.4633 1.09972 21.6966C0.84952 21.93 0.698953 22.2489 0.678788 22.5882C0.658623 22.9275 0.770381 23.2617 0.991228 23.5223C1.21207 23.783 1.52534 23.9505 1.86702 23.9907L2.02497 24H17.901C22.927 24 27 19.9684 27 14.998C27.0019 12.6669 26.0876 10.4262 24.45 8.74793C22.8123 7.06967 20.5791 6.08497 18.2209 6.00134L17.901 5.996L5.05032 5.99467L9.02473 2.30585L9.14083 2.18315C9.35011 1.93311 9.45994 1.61627 9.44975 1.29197C9.43957 0.967678 9.31006 0.658176 9.08548 0.42143Z" fill="#30B4FF"/>
</svg>
