<svg width="16" height="16" viewBox="0 0 16 16" fill="none" xmlns="http://www.w3.org/2000/svg">
     <path opacity="0.7"
          d="M12.5726 0C13.1694 0 13.6695 0.44 13.7129 1.01667L13.7162 1.1V5.33667C13.7162 5.75333 13.8662 6.15333 14.1396 6.46667L14.2163 6.55L15.1265 7.46C15.6399 7.58333 16 8.04333 16 8.57V14.8567C16 15.0068 15.9704 15.1555 15.913 15.2942C15.8555 15.4329 15.7712 15.559 15.6651 15.6651C15.5589 15.7713 15.4328 15.8555 15.2941 15.913C15.1553 15.9704 15.0066 16 14.8564 16H1.14357C0.510106 16 0 15.49 0 14.8567V8.57C0 8.04333 0.360075 7.58333 0.873515 7.46L1.7837 6.55C2.0771 6.25667 2.2538 5.86667 2.28048 5.45L2.28381 5.33667V1.10333C2.28381 0.513333 2.75724 0.0466667 3.34403 0.00333333L3.43071 0L12.5726 0ZM4.12753 8.57H1.14357V14.8567H14.8598V8.57H11.8791L11.5224 9.91C11.389 10.41 10.9356 10.76 10.4188 10.76H5.5845C5.06439 10.76 4.61096 10.41 4.4776 9.90667L4.12753 8.57ZM12.5726 1.14333H3.43071V5.34C3.43071 6.04667 3.17066 6.72667 2.69723 7.25L2.59387 7.36L2.52386 7.43H4.13086C4.61763 7.43 5.05105 7.73667 5.21109 8.19667L5.23776 8.28333L5.58783 9.62H10.4222L10.7789 8.28C10.9123 7.78 11.3657 7.43 11.8825 7.43H13.4828L13.4128 7.36C12.9128 6.86145 12.6158 6.19505 12.5793 5.49L12.576 5.34V1.14333H12.5726ZM9.14524 6.85667C9.29644 6.85667 9.44145 6.91672 9.54837 7.02362C9.65529 7.13051 9.71536 7.27549 9.71536 7.42667C9.71536 7.57784 9.65529 7.72282 9.54837 7.82972C9.44145 7.93661 9.29644 7.99667 9.14524 7.99667H6.8581C6.70689 7.99667 6.56188 7.93661 6.45496 7.82972C6.34804 7.72282 6.28798 7.57784 6.28798 7.42667C6.28798 7.27549 6.34804 7.13051 6.45496 7.02362C6.56188 6.91672 6.70689 6.85667 6.8581 6.85667H9.14524ZM9.14524 4.57C9.29644 4.57 9.44145 4.63005 9.54837 4.73695C9.65529 4.84384 9.71536 4.98883 9.71536 5.14C9.71536 5.29117 9.65529 5.43615 9.54837 5.54305C9.44145 5.64995 9.29644 5.71 9.14524 5.71H6.8581C6.70689 5.71 6.56188 5.64995 6.45496 5.54305C6.34804 5.43615 6.28798 5.29117 6.28798 5.14C6.28798 4.98883 6.34804 4.84384 6.45496 4.73695C6.56188 4.63005 6.70689 4.57 6.8581 4.57H9.14524ZM9.14524 2.28667C9.22011 2.28667 9.29424 2.30141 9.36341 2.33006C9.43258 2.3587 9.49543 2.40069 9.54837 2.45362C9.60131 2.50655 9.64331 2.56938 9.67196 2.63854C9.70061 2.70769 9.71536 2.78181 9.71536 2.85667C9.71536 2.93152 9.70061 3.00564 9.67196 3.0748C9.64331 3.14395 9.60131 3.20679 9.54837 3.25972C9.49543 3.31265 9.43258 3.35463 9.36341 3.38328C9.29424 3.41192 9.22011 3.42667 9.14524 3.42667H6.8581C6.78323 3.42667 6.70909 3.41192 6.63992 3.38328C6.57075 3.35463 6.5079 3.31265 6.45496 3.25972C6.40202 3.20679 6.36003 3.14395 6.33137 3.0748C6.30272 3.00564 6.28798 2.93152 6.28798 2.85667C6.28798 2.78181 6.30272 2.70769 6.33137 2.63854C6.36003 2.56938 6.40202 2.50655 6.45496 2.45362C6.5079 2.40069 6.57075 2.3587 6.63992 2.33006C6.70909 2.30141 6.78323 2.28667 6.8581 2.28667H9.14524Z"
          fill="white" />
</svg>