<svg width="18" height="18" viewBox="0 0 18 18" fill="none" xmlns="http://www.w3.org/2000/svg">
<g opacity="0.7">
<path d="M15.2181 17.4497H2.6378C2.30199 17.4497 2.02907 17.1768 2.02907 16.841C2.02907 16.5052 2.30199 16.2323 2.6378 16.2323H15.2181C15.7771 16.2323 16.2326 15.7768 16.2326 15.2178C16.2326 14.6587 15.7771 14.2032 15.2181 14.2032H2.23198C1.00135 14.2032 0 13.2019 0 11.9712C0 10.7406 1.00135 9.73926 2.23198 9.73926H4.04902C4.38483 9.73926 4.65774 10.0122 4.65774 10.348C4.65774 10.6838 4.38483 10.9567 4.04902 10.9567H2.23198C1.67297 10.9567 1.21745 11.4122 1.21745 11.9712C1.21745 12.5302 1.67297 12.9858 2.23198 12.9858H15.2181C16.4487 12.9858 17.45 13.9871 17.45 15.2178C17.45 16.4484 16.4487 17.4497 15.2181 17.4497Z" fill="white"/>
<path d="M8.72416 11.5657C8.64199 11.5657 8.55879 11.5485 8.47864 11.514C8.3569 11.4602 5.48272 10.1647 4.10903 7.04292C3.77322 6.27897 3.76105 5.52821 3.75293 4.98036C3.75293 2.22995 5.98288 0 8.72416 0C9.05998 0 9.33289 0.272911 9.33289 0.608723C9.33289 0.944534 9.05998 1.21744 8.72416 1.21744C6.65451 1.21744 4.97037 2.90158 4.97037 4.97123C4.97748 5.43082 4.98661 6.01316 5.22299 6.55188C6.40797 9.24548 8.94432 10.3878 8.96968 10.4C9.27709 10.536 9.41709 10.8951 9.28114 11.2025C9.18172 11.4308 8.95852 11.5657 8.72416 11.5657Z" fill="white"/>
<path d="M8.72518 11.5657C8.60712 11.5657 8.4916 11.5314 8.39271 11.4669C8.29382 11.4024 8.21581 11.3106 8.16819 11.2025C8.03225 10.8951 8.17225 10.536 8.47966 10.4C8.50502 10.3889 11.0404 9.2465 12.2263 6.55188C12.4637 6.01316 12.4719 5.4298 12.479 4.9621C12.479 2.90158 10.7948 1.21744 8.72518 1.21744C8.38936 1.21744 8.11645 0.944534 8.11645 0.608723C8.11645 0.272911 8.38936 0 8.72518 0C11.4665 0 13.6964 2.22995 13.6964 4.97123C13.6883 5.52821 13.6771 6.27796 13.3403 7.04292C11.9666 10.1657 9.09244 11.4612 8.97069 11.514C8.89055 11.5495 8.80735 11.5657 8.72518 11.5657Z" fill="white"/>
<path d="M8.72526 7.305C7.55042 7.305 6.59473 6.34931 6.59473 5.17447C6.59473 3.99964 7.55042 3.04395 8.72526 3.04395C9.90009 3.04395 10.8558 3.99964 10.8558 5.17447C10.8558 6.34931 9.90009 7.305 8.72526 7.305ZM8.72526 4.26139C8.22204 4.26139 7.81217 4.67126 7.81217 5.17447C7.81217 5.67768 8.22204 6.08756 8.72526 6.08756C9.22847 6.08756 9.63834 5.67768 9.63834 5.17447C9.63834 4.67126 9.22847 4.26139 8.72526 4.26139Z" fill="white"/>
</g>
</svg>
