<svg width="14" height="16" viewBox="0 0 14 16" fill="none" xmlns="http://www.w3.org/2000/svg">
<g opacity="0.7">
<path d="M9.5 14C8.4011 14 7.5 13.1062 7.5 12C7.5 10.8938 8.39377 10 9.5 10C10.6062 10 11.5 10.8938 11.5 12C11.5 13.1062 10.5989 14 9.5 14ZM9.5 10.9158C9.35752 10.9154 9.21638 10.9432 9.08468 10.9976C8.95299 11.052 8.83333 11.1318 8.73258 11.2326C8.63183 11.3333 8.55198 11.453 8.49761 11.5847C8.44324 11.7164 8.41542 11.8575 8.41575 12C8.41542 12.1425 8.44324 12.2836 8.49761 12.4153C8.55198 12.547 8.63183 12.6667 8.73258 12.7674C8.83333 12.8682 8.95299 12.948 9.08468 13.0024C9.21638 13.0568 9.35752 13.0846 9.5 13.0842C9.64248 13.0846 9.78362 13.0568 9.91532 13.0024C10.047 12.948 10.1667 12.8682 10.2674 12.7674C10.3682 12.6667 10.448 12.547 10.5024 12.4153C10.5568 12.2836 10.5846 12.1425 10.5842 12C10.5842 11.3993 10.0934 10.9158 9.5 10.9158ZM9.03846 11.9963C9.03846 11.7435 9.24346 11.5385 9.49634 11.5385C9.74921 11.5385 9.95421 11.7435 9.95421 11.9963C9.95421 12.2492 9.74921 12.4542 9.49634 12.4542C9.24346 12.4542 9.03846 12.2492 9.03846 11.9963Z" fill="white"/>
<path d="M3.5 3.5H10.5M3.5 6.87736H9.5M3.5 10.1226H6.5" stroke="white" stroke-width="1.2" stroke-linecap="round" stroke-linejoin="round"/>
<rect x="1.1" y="0.6" width="11.8" height="14.8" rx="1.4" stroke="white" stroke-width="1.2"/>
</g>
</svg>
