<svg width="28" height="32" viewBox="0 0 28 32" fill="none" xmlns="http://www.w3.org/2000/svg">
<path d="M25.6667 32H2.33333C1.04635 32 0 31.0464 0 29.8643V13.8643C0 12.6857 1.04635 11.7321 2.33333 11.7321H25.6667C26.9536 11.7321 28 12.6857 28 13.8643V29.8643C28 31.0464 26.9536 32 25.6667 32ZM14 17.0679C12.0677 17.0679 10.5 18.5 10.5 20.2679C10.5 21.45 11.2073 22.4714 12.25 23.025V26.0714C12.25 26.9893 13.0339 27.7393 14 27.7393C14.9661 27.7393 15.75 26.9929 15.75 26.0714V23.025C16.7927 22.4714 17.5 21.45 17.5 20.2679C17.5 18.5 15.9323 17.0679 14 17.0679ZM14 3.2C10.1354 3.2 7 6.06429 7 9.6H3.5C3.5 4.29643 8.19948 0 14 0C19.8005 0 24.5 4.29643 24.5 9.6H21C21 6.06429 17.8646 3.2 14 3.2Z" fill="url(#paint0_linear_150_187)"/>
<defs>
<linearGradient id="paint0_linear_150_187" x1="14" y1="0" x2="14" y2="32" gradientUnits="userSpaceOnUse">
<stop stop-color="#3CE5D3"/>
<stop offset="1" stop-color="#40A9FF" stop-opacity="0.08"/>
<stop offset="1" stop-color="#40A9FF" stop-opacity="0.2"/>
</linearGradient>
</defs>
</svg>
