<svg width="32" height="32" viewBox="0 0 32 32" fill="none" xmlns="http://www.w3.org/2000/svg">
<path d="M16 16C17.0506 16.0001 18.091 15.7932 19.0617 15.3913C20.0324 14.9893 20.9144 14.4 21.6573 13.6571C22.4003 12.9142 22.9896 12.0323 23.3917 11.0616C23.7938 10.091 24.0008 9.05064 24.0008 8C24.0008 6.94936 23.7938 5.90901 23.3917 4.93835C22.9896 3.9677 22.4003 3.08575 21.6573 2.34288C20.9144 1.6 20.0324 1.01074 19.0617 0.608743C18.091 0.206751 17.0506 -0.000100268 16 3.64619e-08C14.9494 -0.000100268 13.909 0.206751 12.9383 0.608743C11.9676 1.01074 11.0856 1.6 10.3427 2.34288C9.5997 3.08575 9.01036 3.9677 8.60827 4.93835C8.20619 5.90901 7.99923 6.94936 7.99923 8C7.99923 9.05064 8.20619 10.091 8.60827 11.0616C9.01036 12.0323 9.5997 12.9142 10.3427 13.6571C11.0856 14.4 11.9676 14.9893 12.9383 15.3913C13.909 15.7932 14.9494 16.0001 16 16ZM16 20C10.6587 20 0 22.68 0 28V32H32V28C32 22.68 21.3413 20 16 20Z" fill="url(#paint0_linear_150_182)"/>
<defs>
<linearGradient id="paint0_linear_150_182" x1="16" y1="0" x2="16" y2="32" gradientUnits="userSpaceOnUse">
<stop stop-color="#3CE5D3"/>
<stop offset="1" stop-color="#40A9FF" stop-opacity="0.2"/>
</linearGradient>
</defs>
</svg>
