<svg width="24" height="24" viewBox="0 0 24 24" fill="none" xmlns="http://www.w3.org/2000/svg">
<path fill-rule="evenodd" clip-rule="evenodd" d="M11.536 2.60208C10.3711 3.98166 9.79752 5.76522 9.94002 7.56526L10.1059 9.6606L4.5375 13.4193C4.30516 13.5761 4.16591 13.8381 4.16591 14.1184C4.16591 14.7074 4.75416 15.115 5.30561 14.9082L10.371 13.0087L10.5713 15.5392L7.97867 18.476C7.9067 18.5575 7.86698 18.6625 7.86698 18.7713C7.86698 19.0615 8.13977 19.2745 8.42138 19.2041L11.5682 18.4174L14.7149 19.2041C14.9965 19.2745 15.2693 19.0615 15.2693 18.7713C15.2693 18.6625 15.2296 18.5575 15.1576 18.476L12.565 15.5393L12.7654 13.0087L17.8309 14.9082C18.3824 15.115 18.9706 14.7074 18.9706 14.1184C18.9706 13.8381 18.8314 13.5761 18.599 13.4193L13.0304 9.66048L13.1963 7.56526C13.3388 5.76522 12.7653 3.98166 11.6003 2.60208C11.5835 2.58218 11.5528 2.58218 11.536 2.60208Z" fill="#3CE5D3"/>
</svg>
