<svg width="24" height="24" viewBox="0 0 24 24"  fill="none"  xmlns="http://www.w3.org/2000/svg">
<path fill-rule="evenodd" clip-rule="evenodd" d="M18.5 8V20.5H5.5V3.5H14V7C14 7.55228 14.4477 8 15 8H18.5ZM17.3787 6.5L15.5 4.62132V6.5H17.3787ZM15.7071 2.70711L15 2H5C4.44772 2 4 2.44772 4 3V21C4 21.5523 4.44772 22 5 22H19C19.5523 22 20 21.5523 20 21V7L19.2929 6.29289L15.7071 2.70711Z" fill="black"/>
<path fill-rule="evenodd" clip-rule="evenodd" d="M14.5 13C14.5 14.3807 13.3807 15.5 12 15.5C10.6193 15.5 9.5 14.3807 9.5 13C9.5 11.6193 10.6193 10.5 12 10.5C13.3807 10.5 14.5 11.6193 14.5 13ZM14.301 16.2723C13.6502 16.7308 12.8565 17 12 17C9.79086 17 8 15.2091 8 13C8 10.7909 9.79086 9 12 9C14.2091 9 16 10.7909 16 13C16 13.8565 15.7308 14.6502 15.2723 15.301C15.3663 15.3376 15.4544 15.3938 15.5303 15.4697L16.5303 16.4697C16.8232 16.7626 16.8232 17.2374 16.5303 17.5303C16.2374 17.8232 15.7626 17.8232 15.4697 17.5303L14.4697 16.5303C14.3938 16.4544 14.3376 16.3663 14.301 16.2723Z" fill="black"/>
</svg>
