<svg width="24" height="24" viewBox="0 0 24 24" fill="none" xmlns="http://www.w3.org/2000/svg">
<g opacity="0.6">
<path d="M5.68066 5.09766C5.68066 4.68344 5.34488 4.34766 4.93066 4.34766C4.51645 4.34766 4.18066 4.68344 4.18066 5.09766H5.68066ZM4.18066 19.0074C4.18066 19.4216 4.51645 19.7574 4.93066 19.7574C5.34488 19.7574 5.68066 19.4216 5.68066 19.0074H4.18066ZM4.18066 5.09766V19.0074H5.68066V5.09766H4.18066Z" fill="#3CE5D3"/>
<path d="M8.35694 11.6139C8.11386 11.8139 8.11386 12.1861 8.35694 12.3861L16.6264 19.1904C16.9526 19.4588 17.4441 19.2267 17.4441 18.8043L17.4441 5.19575C17.4441 4.77329 16.9526 4.54123 16.6264 4.80965L8.35694 11.6139Z" fill="#3CE5D3"/>
</g>
</svg>
