<svg width="24" height="24" viewBox="0 0 24 24" fill="none" xmlns="http://www.w3.org/2000/svg">
<g opacity="0.6">
<path d="M8.07102 19.0711L15.1421 12L8.07102 4.92893" stroke="#3CE5D3" stroke-width="1.5" stroke-linecap="round" stroke-linejoin="round"/>
<path d="M16.5386 11.6139C16.7816 11.8139 16.7816 12.1861 16.5386 12.3861L8.26908 19.1904C7.94286 19.4588 7.45139 19.2267 7.45139 18.8043L7.45139 5.19575C7.45139 4.77329 7.94286 4.54123 8.26908 4.80965L16.5386 11.6139Z" fill="#3CE5D3"/>
<path d="M20.7527 5.09766C20.7527 4.68344 20.4169 4.34766 20.0027 4.34766C19.5885 4.34766 19.2527 4.68344 19.2527 5.09766H20.7527ZM19.2527 19.0074C19.2527 19.4216 19.5885 19.7574 20.0027 19.7574C20.4169 19.7574 20.7527 19.4216 20.7527 19.0074H19.2527ZM19.2527 5.09766V19.0074H20.7527V5.09766H19.2527Z" fill="#3CE5D3"/>
</g>
</svg>
