<svg width="24" height="24" viewBox="0 0 24 24" fill="none" xmlns="http://www.w3.org/2000/svg">
<path fill-rule="evenodd" clip-rule="evenodd" d="M5.43732 7.86659C6.71747 5.5596 9.177 4 12.0001 4C16.1423 4 19.5001 7.35786 19.5001 11.5C19.5001 15.6421 16.1423 19 12.0001 19C8.92269 19 6.27727 17.1462 5.12131 14.4938L5.89255 14.7745C6.15204 14.8689 6.43896 14.7352 6.53341 14.4757C6.62785 14.2162 6.49406 13.9293 6.23457 13.8348L4.69929 13.276C4.59619 13.0697 4.35991 12.956 4.12752 13.0158C3.96623 13.0573 3.84366 13.1729 3.78687 13.3168C3.75682 13.3562 3.73215 13.4006 3.71433 13.4496L3.03029 15.329C2.93584 15.5885 3.06964 15.8754 3.32913 15.9698C3.58861 16.0643 3.87554 15.9305 3.96998 15.671L4.23114 14.9535C5.5548 17.9267 8.53486 20 12.0001 20C16.6945 20 20.5001 16.1944 20.5001 11.5C20.5001 6.80558 16.6945 3 12.0001 3C8.79917 3 6.01222 4.76955 4.56291 7.38139C4.42893 7.62285 4.51605 7.92721 4.75751 8.06119C4.99897 8.19518 5.30333 8.10805 5.43732 7.86659Z" fill="#3CE5D3"/>
<path d="M10.6475 12.424L11.0795 11.08C11.3915 10.084 11.6795 9.136 11.9555 8.104H12.0035C12.2915 9.124 12.5675 10.084 12.8915 11.08L13.3115 12.424H10.6475ZM14.4275 16H15.6035L12.6155 7.204H11.3795L8.39147 16H9.51947L10.3715 13.312H13.5875L14.4275 16Z" fill="#3CE5D3"/>
</svg>
