<svg width="24" height="24" viewBox="0 0 24 24" fill="none" xmlns="http://www.w3.org/2000/svg">
<g opacity="0.8">
<path fill-rule="evenodd" clip-rule="evenodd" d="M5 5.25C4.58579 5.25 4.25 5.58579 4.25 6V16C4.25 16.4142 4.58579 16.75 5 16.75H7V18C7 18.5523 7.44772 19 8 19H19C19.5523 19 20 18.5523 20 18V9C20 8.44772 19.5523 8 19 8H17.75V6C17.75 5.58579 17.4142 5.25 17 5.25H5ZM16.25 8V6.75H5.75V15.25H7V9C7 8.44772 7.44772 8 8 8H16.25ZM8.5 9.5V11.25H18.5V9.5H8.5ZM8.5 17.5V12.75H18.5V17.5H8.5Z" fill="white"/>
</g>
</svg>
