<svg width="24" height="24" viewBox="0 0 24 24" fill="none" xmlns="http://www.w3.org/2000/svg">
<path d="M4 6.25C3.58579 6.25 3.25 6.58579 3.25 7C3.25 7.41421 3.58579 7.75 4 7.75V6.25ZM4 18.25C3.58579 18.25 3.25 18.5858 3.25 19C3.25 19.4142 3.58579 19.75 4 19.75V18.25ZM4 7.75H15V6.25H4V7.75ZM15 18.25H4V19.75H15V18.25ZM20.25 13C20.25 15.8995 17.8995 18.25 15 18.25V19.75C18.7279 19.75 21.75 16.7279 21.75 13H20.25ZM15 7.75C17.8995 7.75 20.25 10.1005 20.25 13H21.75C21.75 9.27208 18.7279 6.25 15 6.25V7.75Z" fill="white"/>
<path d="M5.00006 4.17133L2.17163 6.99976L5.00006 9.82818" stroke="white" stroke-width="1.5" stroke-linecap="round" stroke-linejoin="round"/>
</svg>
