<svg width="24" height="24" viewBox="0 0 24 24"  fill="none"  xmlns="http://www.w3.org/2000/svg">
<path fill-rule="evenodd" clip-rule="evenodd" d="M12.0001 4.25C12.4143 4.25 12.7501 4.58579 12.7501 5V7.25L15.2501 7.25V6C15.2501 5.58579 15.5859 5.25 16.0001 5.25C16.4143 5.25 16.7501 5.58579 16.7501 6L16.7501 8L16.7501 10C16.7501 10.4142 16.4143 10.75 16.0001 10.75C15.5859 10.75 15.2501 10.4142 15.2501 10V8.75H12.7501V13H16.0001C16.5524 13 17.0001 13.4477 17.0001 14V17V18.5H19.2812C19.6955 18.5 20.0312 18.8358 20.0312 19.25C20.0312 19.6642 19.6955 20 19.2812 20H17.0001H14.0001H7.00012H4.78125C4.36704 20 4.03125 19.6642 4.03125 19.25C4.03125 18.8358 4.36704 18.5 4.78125 18.5H7.00012V14C7.00012 13.4477 7.44783 13 8.00012 13H11.2501V8.75H8.75012V10C8.75012 10.4142 8.41433 10.75 8.00012 10.75C7.5859 10.75 7.25012 10.4142 7.25012 10V8V6C7.25012 5.58579 7.5859 5.25 8.00012 5.25C8.41433 5.25 8.75012 5.58579 8.75012 6V7.25L11.2501 7.25V5C11.2501 4.58579 11.5859 4.25 12.0001 4.25Z" fill="white" />
</svg>
