<svg width="24" height="24" viewBox="0 0 24 24" fill="none" xmlns="http://www.w3.org/2000/svg">
<path opacity="0.8" fill-rule="evenodd" clip-rule="evenodd" d="M9 4.25C8.58579 4.25 8.25 4.58579 8.25 5V7.25H6C5.0335 7.25 4.25 8.0335 4.25 9V17C4.25 17.9665 5.0335 18.75 6 18.75H12H15H18C18.9665 18.75 19.75 17.9665 19.75 17V9C19.75 8.0335 18.9665 7.25 18 7.25H15.75V5C15.75 4.58579 15.4142 4.25 15 4.25H9ZM15.75 17.25V14C15.75 13.5858 15.4142 13.25 15 13.25C14.5858 13.25 14.25 13.5858 14.25 14V17.25H12.75V14C12.75 13.5858 12.4142 13.25 12 13.25C11.5858 13.25 11.25 13.5858 11.25 14V17.25H6C5.86193 17.25 5.75 17.1381 5.75 17V11.75H18.25V17C18.25 17.1381 18.1381 17.25 18 17.25H15.75ZM9.75 8V5.75H14.25V8C14.25 8.41421 14.5858 8.75 15 8.75H18C18.1381 8.75 18.25 8.86193 18.25 9V10.25H5.75V9C5.75 8.86193 5.86193 8.75 6 8.75H9C9.41421 8.75 9.75 8.41421 9.75 8Z" fill="white"/>
</svg>
