<svg width="24" height="24" viewBox="0 0 24 24" fill="none" xmlns="http://www.w3.org/2000/svg">
<g opacity="0.8">
<path fill-rule="evenodd" clip-rule="evenodd" d="M4.5 4.5V19.5H19.5V4.5H4.5ZM4 3C3.44772 3 3 3.44772 3 4V20C3 20.5523 3.44772 21 4 21H20C20.5523 21 21 20.5523 21 20V4C21 3.44772 20.5523 3 20 3H4ZM8.75 5.99945C8.7497 5.58524 8.41367 5.2497 7.99945 5.25C7.58524 5.2503 7.2497 5.58634 7.25 6.00055L7.25092 7.25235L6.00229 7.25342C5.58808 7.25377 5.25258 7.58985 5.25293 8.00406C5.25328 8.41827 5.58936 8.75377 6.00357 8.75342L7.25202 8.75235L7.25293 10.0035C7.25324 10.4177 7.58927 10.7532 8.00348 10.7529C8.4177 10.7526 8.75324 10.4166 8.75293 10.0024L8.75202 8.75107L10.0006 8.75C10.4149 8.74965 10.7504 8.41357 10.75 7.99936C10.7496 7.58515 10.4136 7.24965 9.99936 7.25L8.75092 7.25107L8.75 5.99945ZM10.0331 13.9697C10.326 14.2626 10.326 14.7374 10.0331 15.0303L9.06195 16.0015L10.0331 16.9726C10.326 17.2655 10.326 17.7404 10.0331 18.0333C9.7402 18.3262 9.26533 18.3262 8.97244 18.0333L8.00129 17.0621L7.03033 18.0331C6.73744 18.326 6.26256 18.326 5.96967 18.0331C5.67678 17.7402 5.67678 17.2653 5.96967 16.9724L6.94063 16.0015L5.96967 15.0305C5.67678 14.7376 5.67678 14.2628 5.96967 13.9699C6.26256 13.677 6.73744 13.677 7.03033 13.9699L8.00129 14.9408L8.97244 13.9697C9.26533 13.6768 9.7402 13.6768 10.0331 13.9697ZM18.75 8C18.75 8.41421 18.4142 8.75 18 8.75L13 8.75C12.5858 8.75 12.25 8.41421 12.25 8C12.25 7.58579 12.5858 7.25 13 7.25L18 7.25C18.4142 7.25 18.75 7.58579 18.75 8ZM15.5 13C16.0523 13 16.5 13.4477 16.5 14C16.5 14.5523 16.0523 15 15.5 15C14.9477 15 14.5 14.5523 14.5 14C14.5 13.4477 14.9477 13 15.5 13ZM18 16.75C18.4142 16.75 18.75 16.4142 18.75 16C18.75 15.5858 18.4142 15.25 18 15.25H13C12.5858 15.25 12.25 15.5858 12.25 16C12.25 16.4142 12.5858 16.75 13 16.75H18ZM16.5 18C16.5 18.5523 16.0523 19 15.5 19C14.9477 19 14.5 18.5523 14.5 18C14.5 17.4477 14.9477 17 15.5 17C16.0523 17 16.5 17.4477 16.5 18Z" fill="white"/>
</g>
</svg>
