<svg width="24" height="24" viewBox="0 0 24 24"  fill="none"  xmlns="http://www.w3.org/2000/svg">
<mask id="path-1-inside-1" fill="white">
<rect x="1" y="1" width="22" height="22" rx="1"/>
</mask>
<rect x="1" y="1" width="22" height="22" rx="1" stroke="white" stroke-width="3" mask="url(#path-1-inside-1)"/>
<path fill-rule="evenodd" clip-rule="evenodd" d="M7.75 5.99945C7.7497 5.58524 7.41367 5.2497 6.99945 5.25C6.58524 5.2503 6.2497 5.58634 6.25 6.00055L6.25092 7.25235L5.00229 7.25342C4.58808 7.25377 4.25258 7.58985 4.25293 8.00406C4.25328 8.41827 4.58936 8.75377 5.00357 8.75342L6.25202 8.75235L6.25293 10.0035C6.25324 10.4177 6.58927 10.7532 7.00348 10.7529C7.41769 10.7526 7.75324 10.4166 7.75293 10.0024L7.75202 8.75107L9.00064 8.75C9.41486 8.74965 9.75036 8.41357 9.75 7.99936C9.74965 7.58515 9.41358 7.24965 8.99936 7.25L7.75092 7.25107L7.75 5.99945Z" fill="white"/>
<path fill-rule="evenodd" clip-rule="evenodd" d="M9.0331 15.0303C9.32599 14.7374 9.32599 14.2626 9.0331 13.9697C8.7402 13.6768 8.26533 13.6768 7.97244 13.9697L7.00129 14.9408L6.03033 13.9699C5.73744 13.677 5.26256 13.677 4.96967 13.9699C4.67678 14.2628 4.67678 14.7376 4.96967 15.0305L5.94063 16.0015L4.96967 16.9724C4.67678 17.2653 4.67678 17.7402 4.96967 18.0331C5.26256 18.326 5.73744 18.326 6.03033 18.0331L7.00129 17.0621L7.97244 18.0333C8.26533 18.3262 8.7402 18.3262 9.0331 18.0333C9.32599 17.7404 9.32599 17.2655 9.0331 16.9726L8.06195 16.0015L9.0331 15.0303Z" fill="white"/>
<path d="M19 8L14 8" stroke="white" stroke-width="1.5" stroke-linecap="round" stroke-linejoin="round"/>
<path fill-rule="evenodd" clip-rule="evenodd" d="M17.5 14C17.5 13.4477 17.0523 13 16.5 13C15.9477 13 15.5 13.4477 15.5 14C15.5 14.5523 15.9477 15 16.5 15C17.0523 15 17.5 14.5523 17.5 14ZM19.75 16C19.75 16.4142 19.4142 16.75 19 16.75L14 16.75C13.5858 16.75 13.25 16.4142 13.25 16C13.25 15.5858 13.5858 15.25 14 15.25L19 15.25C19.4142 15.25 19.75 15.5858 19.75 16ZM16.5 19C17.0523 19 17.5 18.5523 17.5 18C17.5 17.4477 17.0523 17 16.5 17C15.9477 17 15.5 17.4477 15.5 18C15.5 18.5523 15.9477 19 16.5 19Z" fill="white"/>
</svg>
