<svg width="24" height="24" viewBox="0 0 24 24"  fill="none"  xmlns="http://www.w3.org/2000/svg">
<g opacity="0.8">
<path fill-rule="evenodd" clip-rule="evenodd" d="M4.5 8.25L4.5 5.5L7.25 5.5L7.25 6C7.25 6.41421 7.58579 6.75 8 6.75C8.41421 6.75 8.75 6.41421 8.75 6L8.75 5.5L15.25 5.5L15.25 6C15.25 6.41421 15.5858 6.75 16 6.75C16.4142 6.75 16.75 6.41421 16.75 6L16.75 5.5L19.5 5.5L19.5 8.25L4.5 8.25ZM16.75 4L20 4C20.5523 4 21 4.44771 21 5L21 20C21 20.5523 20.5523 21 20 21L4 21C3.44772 21 3 20.5523 3 20L3 5C3 4.44771 3.44772 4 4 4L7.25 4L7.25 3C7.25 2.58579 7.58579 2.25 8 2.25C8.41421 2.25 8.75 2.58579 8.75 3L8.75 4L15.25 4L15.25 3C15.25 2.58578 15.5858 2.25 16 2.25C16.4142 2.25 16.75 2.58578 16.75 3L16.75 4ZM4.5 9.75L4.5 19.5L19.5 19.5L19.5 9.75L4.5 9.75ZM5.25 13C5.25 12.5858 5.58579 12.25 6 12.25L7 12.25C7.41421 12.25 7.75 12.5858 7.75 13C7.75 13.4142 7.41421 13.75 7 13.75L6 13.75C5.58579 13.75 5.25 13.4142 5.25 13ZM6 15.25C5.58579 15.25 5.25 15.5858 5.25 16C5.25 16.4142 5.58579 16.75 6 16.75L7 16.75C7.41421 16.75 7.75 16.4142 7.75 16C7.75 15.5858 7.41421 15.25 7 15.25L6 15.25ZM8.75 13C8.75 12.5858 9.08579 12.25 9.5 12.25L10.5 12.25C10.9142 12.25 11.25 12.5858 11.25 13C11.25 13.4142 10.9142 13.75 10.5 13.75L9.5 13.75C9.08579 13.75 8.75 13.4142 8.75 13ZM9.5 15.25C9.08579 15.25 8.75 15.5858 8.75 16C8.75 16.4142 9.08579 16.75 9.5 16.75L10.5 16.75C10.9142 16.75 11.25 16.4142 11.25 16C11.25 15.5858 10.9142 15.25 10.5 15.25L9.5 15.25ZM12.25 13C12.25 12.5858 12.5858 12.25 13 12.25L14 12.25C14.4142 12.25 14.75 12.5858 14.75 13C14.75 13.4142 14.4142 13.75 14 13.75L13 13.75C12.5858 13.75 12.25 13.4142 12.25 13ZM16.5 12.25C16.0858 12.25 15.75 12.5858 15.75 13C15.75 13.4142 16.0858 13.75 16.5 13.75L17.5 13.75C17.9142 13.75 18.25 13.4142 18.25 13C18.25 12.5858 17.9142 12.25 17.5 12.25L16.5 12.25Z" fill="white"/>
</g>
</svg>
