<svg width="24" height="24" viewBox="0 0 24 24" fill="none" xmlns="http://www.w3.org/2000/svg">
<circle cx="12" cy="13" r="2.5" fill="white"/>
<path fill-rule="evenodd" clip-rule="evenodd" d="M9.05997 5C8.67426 5 8.32294 5.22183 8.15711 5.57007L7.47619 7H5C4.44772 7 4 7.44772 4 8V18C4 18.5523 4.44772 19 5 19H19C19.5523 19 20 18.5523 20 18V8C20 7.44772 19.5523 7 19 7H16.5238L15.8429 5.57007C15.6771 5.22183 15.3257 5 14.94 5H9.05997ZM16 13C16 15.2091 14.2091 17 12 17C9.79086 17 8 15.2091 8 13C8 10.7909 9.79086 9 12 9C14.2091 9 16 10.7909 16 13ZM6 10C6.55228 10 7 9.55228 7 9C7 8.44772 6.55228 8 6 8C5.44772 8 5 8.44772 5 9C5 9.55228 5.44772 10 6 10Z" fill="white"/>
</svg>
