<svg width="24" height="24" viewBox="0 0 24 24" fill="none" xmlns="http://www.w3.org/2000/svg">
<path fill-rule="evenodd" clip-rule="evenodd" d="M5.75 7C5.75 6.58579 5.41421 6.25 5 6.25C4.58579 6.25 4.25 6.58579 4.25 7V17C4.25 17.4142 4.58579 17.75 5 17.75H20C20.4142 17.75 20.75 17.4142 20.75 17C20.75 16.5858 20.4142 16.25 20 16.25H5.75V7ZM13.75 8C13.75 7.58579 13.4142 7.25 13 7.25C12.5858 7.25 12.25 7.58579 12.25 8V13C12.25 13.4142 12.5858 13.75 13 13.75C13.4142 13.75 13.75 13.4142 13.75 13V8ZM15.5071 9.23077C15.9214 9.23077 16.2571 9.56656 16.2571 9.98077V12.9464C16.2571 13.3607 15.9214 13.6964 15.5071 13.6964C15.0929 13.6964 14.7571 13.3607 14.7571 12.9464V9.98077C14.7571 9.56656 15.0929 9.23077 15.5071 9.23077ZM11.512 9.98077C11.512 9.56656 11.1762 9.23077 10.762 9.23077C10.3478 9.23077 10.012 9.56656 10.012 9.98077V12.9464C10.012 13.3607 10.3478 13.6964 10.762 13.6964C11.1762 13.6964 11.512 13.3607 11.512 12.9464V9.98077ZM8.38947 11.0102C8.80368 11.0102 9.13947 11.346 9.13947 11.7602V13.5396C9.13947 13.9538 8.80368 14.2896 8.38947 14.2896C7.97525 14.2896 7.63947 13.9538 7.63947 13.5396V11.7602C7.63947 11.346 7.97525 11.0102 8.38947 11.0102ZM18.6297 11.7602C18.6297 11.346 18.2939 11.0102 17.8797 11.0102C17.4655 11.0102 17.1297 11.346 17.1297 11.7602V13.5396C17.1297 13.9538 17.4655 14.2896 17.8797 14.2896C18.2939 14.2896 18.6297 13.9538 18.6297 13.5396V11.7602Z" fill="#3CE5D3"/>
</svg>
