<svg width="24" height="24" viewBox="0 0 24 24"  fill="none"  xmlns="http://www.w3.org/2000/svg">
<path fill-rule="evenodd" clip-rule="evenodd" d="M16.7812 8.28033C17.074 7.98744 17.074 7.51256 16.7812 7.21967C16.4883 6.92678 16.0134 6.92678 15.7205 7.21967L12.0004 10.9398L8.28033 7.21967C7.98744 6.92678 7.51256 6.92678 7.21967 7.21967C6.92678 7.51256 6.92678 7.98744 7.21967 8.28033L10.9398 12.0004L7.21967 15.7205C6.92678 16.0134 6.92678 16.4883 7.21967 16.7812C7.51256 17.074 7.98744 17.074 8.28033 16.7812L12.0004 13.0611L15.7205 16.7812C16.0134 17.074 16.4883 17.074 16.7812 16.7812C17.074 16.4883 17.074 16.0134 16.7812 15.7205L13.0611 12.0004L16.7812 8.28033Z" fill="white" fill-opacity="0.5"/>
</svg>
