<svg width="24" height="24" viewBox="0 0 24 24"  fill="none"  xmlns="http://www.w3.org/2000/svg">
<g opacity="0.8">
<path d="M4.0625 7.6583L4.81128 3.93291M4.0625 7.6583L7.45257 6.32072M4.0625 7.6583C5.13262 5.71536 6.88255 4.23604 8.97649 3.5042C11.0704 2.77237 13.3609 2.83957 15.4083 3.69292C17.4557 4.54628 19.1159 6.12566 20.0703 8.128C20.7971 9.65305 21.0756 11.3416 20.8902 13.0001" stroke="white" stroke-width="1.5" stroke-linecap="round" stroke-linejoin="round"/>
<path d="M19.8839 16.3419L19.1351 20.0673M19.8839 16.3419L16.4938 17.6795M19.8839 16.3419C18.8137 18.2849 17.0638 19.7642 14.9699 20.496C12.8759 21.2279 10.5855 21.1607 8.53805 20.3073C6.49062 19.454 4.83044 17.8746 3.87609 15.8722C3.14919 14.3471 2.87077 12.6585 3.05618 11" stroke="white" stroke-width="1.5" stroke-linecap="round" stroke-linejoin="round"/>
</g>
</svg>
