<svg width="24" height="24" viewBox="0 0 24 24" fill="none" xmlns="http://www.w3.org/2000/svg">
<path fill-rule="evenodd" clip-rule="evenodd" d="M12.5004 4.49954C12.5004 4.2234 12.2765 3.99954 12.0004 3.99954C11.7243 3.99954 11.5004 4.2234 11.5004 4.49954V5.99963C11.5004 6.27577 11.7243 6.49963 12.0004 6.49963C12.2765 6.49963 12.5004 6.27577 12.5004 5.99963V4.49954ZM12.5004 18.0004C12.5004 17.7242 12.2765 17.5004 12.0004 17.5004C11.7243 17.5004 11.5004 17.7242 11.5004 18.0004V19.5005C11.5004 19.7766 11.7243 20.0005 12.0004 20.0005C12.2765 20.0005 12.5004 19.7766 12.5004 19.5005V18.0004ZM17.6544 7.04995C17.8497 6.85468 17.8497 6.5381 17.6544 6.34284C17.4591 6.14758 17.1425 6.14758 16.9473 6.34284L15.8866 7.40357C15.6913 7.59884 15.6913 7.91542 15.8866 8.11068C16.0818 8.30594 16.3984 8.30594 16.5937 8.11068L17.6544 7.04995ZM8.10844 16.5964C8.30371 16.4011 8.30371 16.0845 8.10844 15.8893C7.91318 15.694 7.5966 15.694 7.40134 15.8893L6.3406 16.95C6.14534 17.1453 6.14534 17.4619 6.3406 17.6571C6.53587 17.8524 6.85245 17.8524 7.04771 17.6571L8.10844 16.5964ZM20.0014 11.9997C20.0014 12.2759 19.7776 12.4997 19.5014 12.4997H18.0013C17.7252 12.4997 17.5013 12.2759 17.5013 11.9997C17.5013 11.7236 17.7252 11.4997 18.0013 11.4997H19.5014C19.7776 11.4997 20.0014 11.7236 20.0014 11.9997ZM6.50012 11.9997C6.50012 12.2759 6.27626 12.4997 6.00012 12.4997H4.5C4.22386 12.4997 4 12.2759 4 11.9997C4 11.7236 4.22386 11.4997 4.5 11.4997H6.00012C6.27626 11.4997 6.50012 11.7236 6.50012 11.9997ZM16.9505 17.6571C17.1458 17.8523 17.4624 17.8523 17.6576 17.6571C17.8529 17.4618 17.8529 17.1452 17.6576 16.95L16.5969 15.8892C16.4017 15.694 16.0851 15.694 15.8898 15.8892C15.6945 16.0845 15.6945 16.4011 15.8898 16.5963L16.9505 17.6571ZM7.40459 8.11064C7.59986 8.3059 7.91644 8.3059 8.1117 8.11064C8.30696 7.91538 8.30696 7.59879 8.1117 7.40353L7.05097 6.3428C6.8557 6.14754 6.53912 6.14754 6.34386 6.3428C6.1486 6.53806 6.1486 6.85464 6.34386 7.04991L7.40459 8.11064ZM12.0017 17C14.7631 17 17.0017 14.7615 17.0017 12C17.0017 9.23863 14.7631 7.00005 12.0017 7.00005C9.24028 7.00005 7.0017 9.23863 7.0017 12C7.0017 14.7615 9.24028 17 12.0017 17Z" fill="#3CE5D3"/>
</svg>
