<svg width="18" height="18" viewBox="0 0 18 18" fill="none" xmlns="http://www.w3.org/2000/svg">
<path fill-rule="evenodd" clip-rule="evenodd" d="M1.5 16.5V2.41638L7.10422 7.22L3.39223 16.5H1.5ZM8 6.01219L2.73578 1.5H13.2642L8 6.01219ZM5.00778 16.5H16.5V1.5H15.5591C15.5373 1.52436 15.5136 1.54757 15.4881 1.56944L8.62795 7.44957L5.00778 16.5ZM0 1C0 0.447716 0.447715 0 1 0H17C17.5523 0 18 0.447715 18 1V17C18 17.5523 17.5523 18 17 18H1C0.447716 18 0 17.5523 0 17V1ZM13.5 11.5C13.5 12.0523 13.0523 12.5 12.5 12.5C11.9477 12.5 11.5 12.0523 11.5 11.5C11.5 10.9477 11.9477 10.5 12.5 10.5C13.0523 10.5 13.5 10.9477 13.5 11.5ZM15 11.5C15 12.8807 13.8807 14 12.5 14C11.1193 14 10 12.8807 10 11.5C10 10.1193 11.1193 9 12.5 9C13.8807 9 15 10.1193 15 11.5Z" fill="white"/>
</svg>
