<svg width="64" height="64" viewBox="0 0 64 64" fill="none" xmlns="http://www.w3.org/2000/svg">
<path opacity="0.3" fill-rule="evenodd" clip-rule="evenodd" d="M11 3C9.89543 3 9 3.89543 9 5V59C9 60.1046 9.89543 61 11 61H40.248C35.3292 58.2705 32 53.0241 32 47C32 38.1634 39.1634 31 48 31C50.5103 31 52.8856 31.5781 55 32.6085V20V5C55 3.89543 54.1046 3 53 3H38H11Z" fill="#FF4C2B"/>
<circle cx="48" cy="47" r="14" fill="#FF4C2B"/>
<path fill-rule="evenodd" clip-rule="evenodd" d="M48 43C49.1046 43 50 42.1046 50 41C50 39.8954 49.1046 39 48 39C46.8954 39 46 39.8954 46 41C46 42.1046 46.8954 43 48 43ZM48 45C46.8954 45 46 45.8954 46 47V53C46 54.1046 46.8954 55 48 55C49.1046 55 50 54.1046 50 53V47C50 45.8954 49.1046 45 48 45Z" fill="#121934"/>
<path fill-rule="evenodd" clip-rule="evenodd" d="M18 15C18 13.8954 18.8954 13 20 13H44C45.1046 13 46 13.8954 46 15C46 16.1046 45.1046 17 44 17H20C18.8954 17 18 16.1046 18 15ZM18 27C18 25.8954 18.8954 25 20 25H44C45.1046 25 46 25.8954 46 27C46 28.1046 45.1046 29 44 29H20C18.8954 29 18 28.1046 18 27ZM20 39C18.8954 39 18 39.8954 18 41C18 42.1046 18.8954 43 20 43H28C29.1046 43 30 42.1046 30 41C30 39.8954 29.1046 39 28 39H20Z" fill="#FF4C2B"/>
</svg>
