<svg width="25" height="24" viewBox="0 0 25 24" fill="none" xmlns="http://www.w3.org/2000/svg">
<path fill-rule="evenodd" clip-rule="evenodd" d="M14.27 8.37165V3.04858H6.90656C5.80199 3.04858 4.90656 3.94401 4.90656 5.04858V18.9516C4.90656 20.0561 5.80199 20.9516 6.90655 20.9516H17.8839C18.9885 20.9516 19.8839 20.0561 19.8839 18.9516V8.87165H14.77C14.4938 8.87165 14.27 8.64779 14.27 8.37165ZM15.27 7.87165V3.04858H15.3329L19.8839 7.81281V7.87165H15.27ZM7.63206 13.2598C7.21784 13.2598 6.88206 13.5956 6.88206 14.0098C6.88206 14.424 7.21784 14.7598 7.63206 14.7598H13.4316C13.8458 14.7598 14.1816 14.424 14.1816 14.0098C14.1816 13.5956 13.8458 13.2598 13.4316 13.2598H7.63206ZM6.9028 10.9927C6.9028 10.5785 7.23858 10.2427 7.6528 10.2427H13.4524C13.8666 10.2427 14.2024 10.5785 14.2024 10.9927C14.2024 11.4069 13.8666 11.7427 13.4524 11.7427H7.6528C7.23858 11.7427 6.9028 11.4069 6.9028 10.9927ZM7.63206 16.2579C7.21784 16.2579 6.88206 16.5937 6.88206 17.0079C6.88206 17.4221 7.21784 17.7579 7.63206 17.7579H13.4316C13.8458 17.7579 14.1816 17.4221 14.1816 17.0079C14.1816 16.5937 13.8458 16.2579 13.4316 16.2579H7.63206Z" fill="#3CE5D3"/>
</svg>
