<svg width="24" height="24" viewBox="0 0 24 24" fill="none" xmlns="http://www.w3.org/2000/svg">
<path fill-rule="evenodd" clip-rule="evenodd" d="M4.5 5C4.5 4.44772 4.94772 4 5.5 4H17.5C18.0523 4 18.5 4.44772 18.5 5V12.3749C17.8801 12.1329 17.2056 12 16.5 12C13.4624 12 11 14.4624 11 17.5C11 18.4002 11.2163 19.2499 11.5997 20H5.5C4.94772 20 4.5 19.5523 4.5 19V5ZM6.75 8C6.75 7.58579 7.08579 7.25 7.5 7.25H15.5C15.9142 7.25 16.25 7.58579 16.25 8C16.25 8.41421 15.9142 8.75 15.5 8.75H7.5C7.08579 8.75 6.75 8.41421 6.75 8ZM7.5 11.25C7.08579 11.25 6.75 11.5858 6.75 12C6.75 12.4142 7.08579 12.75 7.5 12.75H12C12.4142 12.75 12.75 12.4142 12.75 12C12.75 11.5858 12.4142 11.25 12 11.25H7.5ZM6.75 16C6.75 15.5858 7.08579 15.25 7.5 15.25H9.5C9.91421 15.25 10.25 15.5858 10.25 16C10.25 16.4142 9.91421 16.75 9.5 16.75H7.5C7.08579 16.75 6.75 16.4142 6.75 16Z" fill="white"/>
<path d="M17.355 16.8414C17.459 16.9215 17.459 17.0784 17.355 17.1584L15.9543 18.2367C15.8228 18.3379 15.6323 18.2442 15.6323 18.0782L15.6323 15.9217C15.6323 15.7557 15.8228 15.662 15.9543 15.7632L17.355 16.8414Z" fill="white"/>
<path d="M14.6569 19.5286C15.2125 19.883 15.8694 20.0449 16.5262 19.9893C17.1831 19.9336 17.8033 19.6636 18.2913 19.2208C18.7792 18.778 19.1078 18.187 19.2263 17.5391C19.3447 16.8913 19.2465 16.2224 18.9468 15.6358C18.647 15.0492 18.1624 14.5775 17.5677 14.2934C16.973 14.0093 16.3012 13.9287 15.6561 14.0639C15.011 14.1991 14.4283 14.5427 13.998 15.0417C13.5677 15.5406 13.3137 16.1671 13.2751 16.8246" stroke="white" stroke-linecap="round" stroke-linejoin="round"/>
<path d="M14.4177 16.4481L13.0096 17.4952L12.3986 15.8502" stroke="white" stroke-linecap="round" stroke-linejoin="round"/>
</svg>
