<svg width="28" height="28" viewBox="0 0 28 28" fill="none" xmlns="http://www.w3.org/2000/svg">
<path fill-rule="evenodd" clip-rule="evenodd" d="M2 8.00002V2.00002H26V8.00002H2ZM2 10H26V18H2V10ZM0 19V9.00002V1.00002C0 0.447731 0.447715 1.52588e-05 1 1.52588e-05H27C27.5523 1.52588e-05 28 0.447731 28 1.00002V9.00002V19V27C28 27.5523 27.5523 28 27 28H1C0.447715 28 0 27.5523 0 27V19ZM26 20H2V26H26V20ZM5 4.00002C4.44772 4.00002 4 4.44773 4 5.00002C4 5.5523 4.44772 6.00002 5 6.00002H9C9.55228 6.00002 10 5.5523 10 5.00002C10 4.44773 9.55228 4.00002 9 4.00002H5ZM5 13C4.44772 13 4 13.4477 4 14C4 14.5523 4.44772 15 5 15H9C9.55228 15 10 14.5523 10 14C10 13.4477 9.55228 13 9 13H5ZM4 23C4 22.4477 4.44772 22 5 22H9C9.55228 22 10 22.4477 10 23C10 23.5523 9.55228 24 9 24H5C4.44772 24 4 23.5523 4 23Z" fill="white" fill-opacity="0.8"/>
</svg>
