<svg width="24" height="24" viewBox="0 0 24 24"  fill="none"  xmlns="http://www.w3.org/2000/svg">
<g opacity="0.8">
<path d="M18.087 5.19204C16.5916 3.82888 14.6169 3 12.4522 3C7.78417 3 4 6.85424 4 11.6087C4 16.3631 7.78417 20.2174 12.4522 20.2174C14.6169 20.2174 16.5916 19.3885 18.087 18.0253" stroke="white" stroke-width="1.5" stroke-linecap="round" stroke-linejoin="round"/>
<path d="M11.0435 10.8588C10.6292 10.8588 10.2935 11.1946 10.2935 11.6088C10.2935 12.023 10.6292 12.3588 11.0435 12.3588V10.8588ZM18.0869 12.3588C18.5011 12.3588 18.8369 12.023 18.8369 11.6088C18.8369 11.1946 18.5011 10.8588 18.0869 10.8588V12.3588ZM11.0435 12.3588H18.0869V10.8588H11.0435V12.3588Z" fill="white"/>
<path d="M21.2854 11.1799C21.6091 11.3741 21.6091 11.8432 21.2854 12.0374L18.8442 13.5022C18.5109 13.7021 18.087 13.4621 18.087 13.0734L18.087 10.144C18.087 9.75531 18.5109 9.51526 18.8442 9.71521L21.2854 11.1799Z" fill="white"/>
</g>
</svg>
