<svg width="24" height="24" viewBox="0 0 24 24"  fill="none" xmlns="http://www.w3.org/2000/svg">
<path fill-rule="evenodd" clip-rule="evenodd" d="M5.25 5C5.25 4.58579 5.58579 4.25 6 4.25H18C18.4142 4.25 18.75 4.58579 18.75 5V7C18.75 7.41421 18.4142 7.75 18 7.75C17.5858 7.75 17.25 7.41421 17.25 7V5.75H6.75V18.25H17.25V17C17.25 16.5858 17.5858 16.25 18 16.25C18.4142 16.25 18.75 16.5858 18.75 17V19C18.75 19.4142 18.4142 19.75 18 19.75H6C5.58579 19.75 5.25 19.4142 5.25 19V5ZM16.4697 9.46967C16.7626 9.17678 17.2374 9.17678 17.5303 9.46967L19.6517 11.591C19.9445 11.8839 19.9445 12.3588 19.6517 12.6517L17.5303 14.773C17.2374 15.0659 16.7626 15.0659 16.4697 14.773C16.1768 14.4801 16.1768 14.0052 16.4697 13.7123L17.182 13H11.75C11.3358 13 11 12.6642 11 12.25C11 11.8358 11.3358 11.5 11.75 11.5H17.4393L16.4697 10.5303C16.1768 10.2374 16.1768 9.76256 16.4697 9.46967Z"  stroke="#ffffff"/ >
</svg>
