<svg width="24" height="24" viewBox="0 0 24 24"  fill="none"  xmlns="http://www.w3.org/2000/svg">
<g opacity="0.8">
<path d="M16.2857 14H18V6H6V14H7.71429" stroke="white" stroke-width="1.5" stroke-linecap="round" stroke-linejoin="round"/>
<path fill-rule="evenodd" clip-rule="evenodd" d="M12.75 14.0716L12.75 19C12.75 19.4142 12.4142 19.75 12 19.75C11.5858 19.75 11.25 19.4142 11.25 19L11.25 14.0715L10.7258 14.7005C10.4607 15.0187 9.98774 15.0617 9.66953 14.7966C9.35132 14.5314 9.30833 14.0585 9.5735 13.7403L11.4238 11.5199C11.5663 11.3489 11.7774 11.25 12 11.25C12.2226 11.25 12.4337 11.3489 12.5762 11.5199L14.4265 13.7403C14.6917 14.0585 14.6487 14.5314 14.3305 14.7966C14.0123 15.0617 13.5393 15.0187 13.2742 14.7005L12.75 14.0716Z" fill="white"/>
<path d="M9 9H15" stroke="white" stroke-width="1.5" stroke-linecap="round" stroke-linejoin="round"/>
</g>
</svg>
