<svg width="24" height="24" viewBox="0 0 24 24"  fill="none"  xmlns="http://www.w3.org/2000/svg">
<path d="M15.059 5.0194L15.2803 5.25H15.6H23C23.1381 5.25 23.25 5.36193 23.25 5.5V21C23.25 21.1381 23.1381 21.25 23 21.25H1C0.861929 21.25 0.75 21.1381 0.75 21V3C0.75 2.86193 0.861929 2.75 1 2.75H12.7738C12.8419 2.75 12.907 2.77776 12.9541 2.82687L15.059 5.0194Z" stroke="white" stroke-width="1.5"/>
<path fill-rule="evenodd" clip-rule="evenodd" d="M5.5 15.5V14.5H6.5V15.5H5.5ZM4 14C4 13.4477 4.44772 13 5 13H7C7.55228 13 8 13.4477 8 14V16C8 16.5523 7.55228 17 7 17H5C4.44772 17 4 16.5523 4 16V14ZM11 14.25C10.5858 14.25 10.25 14.5858 10.25 15C10.25 15.4142 10.5858 15.75 11 15.75H20C20.4142 15.75 20.75 15.4142 20.75 15C20.75 14.5858 20.4142 14.25 20 14.25H11Z" fill="white"/>
<path d="M1 9L23 9" stroke="white" stroke-width="1.5" stroke-linecap="round" stroke-linejoin="round"/>
</svg>
