<svg width="16" height="17" viewBox="0 0 16 17" fill="none" xmlns="http://www.w3.org/2000/svg">
<path fill-rule="evenodd" clip-rule="evenodd" d="M13.985 8.49325C14.6577 8.25683 15.2938 7.94277 15.8826 7.5618C15.9598 8.00793 16 8.46673 16 8.93491C16 13.3532 12.4183 16.9349 8 16.9349C3.58172 16.9349 0 13.3532 0 8.93491C0 6.62597 0.978162 4.54549 2.5427 3.08526C3.02232 4.39968 3.79963 5.57089 4.79304 6.5173C6.16051 5.08192 7 3.13898 7 0.999971C7 0.680314 6.98125 0.365036 6.94479 0.0551758C10.9178 0.522615 14 3.90135 14 7.99997C14 8.16562 13.995 8.33009 13.985 8.49325Z" fill="#FFD118"/>
</svg>
