<svg width="24" height="24" viewBox="0 0 24 24" fill="none" xmlns="http://www.w3.org/2000/svg">
<g opacity="0.6">
<path fill-rule="evenodd" clip-rule="evenodd" d="M11.9999 3.25C12.4142 3.25 12.7499 3.58579 12.7499 4V5.03971C16.0169 5.38769 18.6122 7.98308 18.9602 11.25H19.9998C20.414 11.25 20.7498 11.5858 20.7498 12C20.7498 12.4142 20.414 12.75 19.9998 12.75H18.9602C18.6123 16.0169 16.0169 18.6123 12.7499 18.9603V20C12.7499 20.4142 12.4142 20.75 11.9999 20.75C11.5857 20.75 11.2499 20.4142 11.2499 20V18.9603C7.98302 18.6123 5.38763 16.0169 5.03965 12.75H4C3.58579 12.75 3.25 12.4142 3.25 12C3.25 11.5858 3.58579 11.25 4 11.25H5.03965C5.38763 7.98308 7.98302 5.38769 11.2499 5.03971V4C11.2499 3.58579 11.5857 3.25 11.9999 3.25ZM6.55065 12.75H6.56098C6.97519 12.75 7.31098 12.4142 7.31098 12C7.31098 11.5858 6.97519 11.25 6.56098 11.25H6.55065C6.88301 8.81246 8.8124 6.88307 11.2499 6.55071V6.56098C11.2499 6.97519 11.5857 7.31098 11.9999 7.31098C12.4142 7.31098 12.7499 6.97519 12.7499 6.56098V6.55071C15.1875 6.88307 17.1169 8.81246 17.4492 11.25H17.4389C17.0246 11.25 16.6889 11.5858 16.6889 12C16.6889 12.4142 17.0246 12.75 17.4389 12.75H17.4492C17.1169 15.1875 15.1875 17.1169 12.7499 17.4493V17.439C12.7499 17.0248 12.4142 16.689 11.9999 16.689C11.5857 16.689 11.2499 17.0248 11.2499 17.439V17.4493C8.8124 17.1169 6.88301 15.1875 6.55065 12.75Z" fill="white"/>
<circle cx="12" cy="12" r="2.25" stroke="white" stroke-width="1.5"/>
</g>
</svg>
