<svg width="24" height="24" viewBox="0 0 24 24"  fill="none"  xmlns="http://www.w3.org/2000/svg">
<path fill-rule="evenodd" clip-rule="evenodd" d="M17.9302 6.07026C18.223 6.36315 18.223 6.83802 17.9302 7.13092L14.9302 10.1309C14.6373 10.4238 14.1624 10.4238 13.8695 10.1309C13.5766 9.83802 13.5766 9.36315 13.8695 9.07026L16.8695 6.07026C17.1624 5.77736 17.6373 5.77736 17.9302 6.07026ZM7.13018 6.07026C6.83729 5.77736 6.36242 5.77736 6.06952 6.07026C5.77663 6.36315 5.77663 6.83802 6.06952 7.13092L9.06952 10.1309C9.36242 10.4238 9.83729 10.4238 10.1302 10.1309C10.4231 9.83802 10.4231 9.36315 10.1302 9.07026L7.13018 6.07026ZM10.1302 14.931C10.4231 14.6382 10.4231 14.1633 10.1302 13.8704C9.83729 13.5775 9.36242 13.5775 9.06952 13.8704L6.06952 16.8704C5.77663 17.1633 5.77663 17.6382 6.06952 17.931C6.36242 18.2239 6.83729 18.2239 7.13018 17.931L10.1302 14.931ZM16.8695 17.931C17.1624 18.2239 17.6373 18.2239 17.9302 17.931C18.223 17.6382 18.223 17.1633 17.9302 16.8704L14.9302 13.8704C14.6373 13.5775 14.1624 13.5775 13.8695 13.8704C13.5766 14.1633 13.5766 14.6382 13.8695 14.931L16.8695 17.931Z" fill="white"/>
<path d="M15.3333 6H18V8.66667M8.66667 6H6V8.66667M6 15.3333V18H8.66667M18 15.3333V18H15.3333" stroke="white" stroke-width="1.5" stroke-linecap="round" stroke-linejoin="round"/>
</svg>
