<svg width="16" height="16" viewBox="0 0 16 16" fill="none" xmlns="http://www.w3.org/2000/svg">
<path fill-rule="evenodd" clip-rule="evenodd" d="M8 16C12.4183 16 16 12.4183 16 8C16 3.58172 12.4183 0 8 0C3.58172 0 0 3.58172 0 8C0 12.4183 3.58172 16 8 16ZM4.26532 7.51838L7.16264 10.9952C7.58451 11.5014 8.37218 11.4683 8.75009 10.9284L12.7314 5.24093C13.0684 4.75945 12.4426 4.19209 11.9963 4.57456L8.45985 7.60585C8.17718 7.84813 7.78333 7.91333 7.43766 7.77507L4.83512 6.73405C4.35323 6.54129 3.93305 7.11966 4.26532 7.51838Z" fill="#35E065"/>
</svg>
