<svg width="24" height="24" viewBox="0 0 24 24" fill="none" xmlns="http://www.w3.org/2000/svg">
<path fill-rule="evenodd" clip-rule="evenodd" d="M3.25 4C3.25 3.58579 3.58579 3.25 4 3.25H8C8.41421 3.25 8.75 3.58579 8.75 4C8.75 4.41421 8.41421 4.75 8 4.75H4.75V8C4.75 8.41421 4.41421 8.75 4 8.75C3.58579 8.75 3.25 8.41421 3.25 8V4ZM15.25 4C15.25 3.58579 15.5858 3.25 16 3.25H20C20.4142 3.25 20.75 3.58579 20.75 4V8C20.75 8.41421 20.4142 8.75 20 8.75C19.5858 8.75 19.25 8.41421 19.25 8V4.75H16C15.5858 4.75 15.25 4.41421 15.25 4ZM4 15.25C4.41421 15.25 4.75 15.5858 4.75 16V19.25H8C8.41421 19.25 8.75 19.5858 8.75 20C8.75 20.4142 8.41421 20.75 8 20.75H4C3.58579 20.75 3.25 20.4142 3.25 20V16C3.25 15.5858 3.58579 15.25 4 15.25ZM20 15.25C20.4142 15.25 20.75 15.5858 20.75 16V20C20.75 20.4142 20.4142 20.75 20 20.75H16C15.5858 20.75 15.25 20.4142 15.25 20C15.25 19.5858 15.5858 19.25 16 19.25H19.25V16C19.25 15.5858 19.5858 15.25 20 15.25Z" fill="#3CE5D3"/>
<path fill-rule="evenodd" clip-rule="evenodd" d="M11.7782 4.70711C11.3876 4.31658 10.7545 4.31658 10.3639 4.70711C9.97341 5.09763 9.97341 5.7308 10.3639 6.12132L6.1213 10.364C5.73077 9.97344 5.09761 9.97344 4.70708 10.364C4.31656 10.7545 4.31656 11.3877 4.70708 11.7782L8.94972 16.0208C9.34025 16.4113 9.97341 16.4113 10.3639 16.0208C10.7545 15.6303 10.7545 14.9971 10.3639 14.6066L11.7782 13.1924L16.0208 17.435C16.4113 17.8256 17.0445 17.8256 17.435 17.435C17.8255 17.0445 17.8255 16.4113 17.435 16.0208L13.1924 11.7782L14.6066 10.364C14.9971 10.7545 15.6303 10.7545 16.0208 10.364C16.4113 9.97344 16.4113 9.34027 16.0208 8.94975L11.7782 4.70711Z" fill="#3CE5D3"/>
</svg>
