<svg width="24" height="24" viewBox="0 0 24 24" fill="none" xmlns="http://www.w3.org/2000/svg">
<g opacity="0.2">
<path fill-rule="evenodd" clip-rule="evenodd" d="M10.7782 2.29289C11.1687 1.90237 11.8019 1.90237 12.1924 2.29289L19.2635 9.36396C19.654 9.75449 19.654 10.3877 19.2635 10.7782C18.8729 11.1687 18.2398 11.1687 17.8492 10.7782L15.0208 13.6066L21.3848 19.9706C21.7753 20.3611 21.7753 20.9943 21.3848 21.3848C20.9943 21.7753 20.3611 21.7753 19.9706 21.3848L13.6066 15.0208L10.7782 17.8492C11.1687 18.2398 11.1687 18.8729 10.7782 19.2635C10.3876 19.654 9.75449 19.654 9.36396 19.2635L2.29289 12.1924C1.90237 11.8019 1.90237 11.1687 2.29289 10.7782C2.68342 10.3876 3.31658 10.3877 3.70711 10.7782L10.7782 3.70711C10.3876 3.31658 10.3876 2.68342 10.7782 2.29289ZM14.5858 10.5857C14.5858 12.7948 12.795 14.5857 10.5858 14.5857C8.37668 14.5857 6.58582 12.7948 6.58582 10.5857C6.58582 8.37655 8.37668 6.58569 10.5858 6.58569C12.795 6.58569 14.5858 8.37655 14.5858 10.5857ZM13.1052 9.04465C13.404 9.33151 13.4137 9.80628 13.1269 10.1051L10.7269 12.6051C10.5854 12.7524 10.39 12.8357 10.1858 12.8357C9.9816 12.8357 9.7862 12.7524 9.64478 12.6051L8.04478 10.9384C7.75792 10.6396 7.76761 10.1648 8.06642 9.87799C8.36523 9.59113 8.84 9.60082 9.12686 9.89963L10.1858 11.0027L12.0448 9.06629C12.3316 8.76749 12.8064 8.7578 13.1052 9.04465Z" fill="white"/>
</g>
</svg>
