<svg width="24" height="24" viewBox="0 0 24 24" fill="none" xmlns="http://www.w3.org/2000/svg">
<g opacity="0.8">
<path fill-rule="evenodd" clip-rule="evenodd" d="M20.5 12C20.5 16.6944 16.6944 20.5 12 20.5C7.30558 20.5 3.5 16.6944 3.5 12C3.5 7.30558 7.30558 3.5 12 3.5C16.6944 3.5 20.5 7.30558 20.5 12ZM22 12C22 17.5228 17.5228 22 12 22C6.47715 22 2 17.5228 2 12C2 6.47715 6.47715 2 12 2C17.5228 2 22 6.47715 22 12ZM12 6.74988C10.7574 6.74988 9.75002 7.75724 9.75002 8.99988C9.75002 9.41409 9.41423 9.74988 9.00002 9.74988C8.5858 9.74988 8.25002 9.41409 8.25002 8.99988C8.25002 6.92881 9.92895 5.24988 12 5.24988C14.0711 5.24988 15.75 6.92881 15.75 8.99988C15.75 10.1959 15.1892 11.2614 14.3193 11.9468C13.8871 12.2873 13.4822 12.6275 13.1841 12.9941C12.8894 13.3566 12.75 13.6833 12.75 13.9999V15.4999C12.75 15.9141 12.4142 16.2499 12 16.2499C11.5858 16.2499 11.25 15.9141 11.25 15.4999V13.9999C11.25 13.2119 11.6044 12.5593 12.0203 12.0478C12.4329 11.5403 12.9555 11.1117 13.391 10.7686C13.9155 10.3553 14.25 9.71689 14.25 8.99988C14.25 7.75724 13.2427 6.74988 12 6.74988ZM13 17.9999C13 18.5522 12.5523 18.9999 12 18.9999C11.4477 18.9999 11 18.5522 11 17.9999C11 17.4477 11.4477 16.9999 12 16.9999C12.5523 16.9999 13 17.4477 13 17.9999Z" fill="white"/>
</g>
</svg>
