<svg width="24" height="24" viewBox="0 0 24 24" fill="none" xmlns="http://www.w3.org/2000/svg">
<path d="M3 9.64779L2.5544 9.04451C2.36296 9.18592 2.25 9.40979 2.25 9.64779H3ZM12 3L12.4456 2.39673C12.1807 2.20109 11.8193 2.20109 11.5544 2.39673L12 3ZM3 21H2.25C2.25 21.4142 2.58579 21.75 3 21.75V21ZM8.625 21V21.75C9.03921 21.75 9.375 21.4142 9.375 21H8.625ZM15.375 21H14.625C14.625 21.4142 14.9608 21.75 15.375 21.75V21ZM21 21V21.75C21.4142 21.75 21.75 21.4142 21.75 21H21ZM21 9.64779H21.75C21.75 9.40979 21.637 9.18592 21.4456 9.04451L21 9.64779ZM3.4456 10.2511L12.4456 3.60327L11.5544 2.39673L2.5544 9.04451L3.4456 10.2511ZM3.75 21V9.64779H2.25V21H3.75ZM8.625 20.25H3V21.75H8.625V20.25ZM9.375 21V16.375H7.875V21H9.375ZM9.375 16.375C9.375 14.9253 10.5503 13.75 12 13.75V12.25C9.72183 12.25 7.875 14.0969 7.875 16.375H9.375ZM12 13.75C13.4497 13.75 14.625 14.9253 14.625 16.375H16.125C16.125 14.0969 14.2782 12.25 12 12.25V13.75ZM14.625 16.375V21H16.125V16.375H14.625ZM21 20.25H15.375V21.75H21V20.25ZM20.25 9.64779V21H21.75V9.64779H20.25ZM11.5544 3.60327L20.5544 10.2511L21.4456 9.04451L12.4456 2.39673L11.5544 3.60327Z" fill="white"/>
</svg>
