<svg width="24" height="24" viewBox="0 0 24 24" fill="none" xmlns="http://www.w3.org/2000/svg">
<g opacity="0.8">
<path fill-rule="evenodd" clip-rule="evenodd" d="M8.25 8C8.25 5.92893 9.92893 4.25 12 4.25C14.0711 4.25 15.75 5.92893 15.75 8V10H17C17.5523 10 18 10.4477 18 11V19C18 19.5523 17.5523 20 17 20H7C6.44772 20 6 19.5523 6 19V11C6 10.4477 6.44772 10 7 10H8.25V8ZM14.25 8V10H9.75V8C9.75 6.75736 10.7574 5.75 12 5.75C13.2426 5.75 14.25 6.75736 14.25 8ZM7.5 11.5V18.5H16.5V11.5H7.5ZM13.5 14C13.5 14.5552 13.1984 15.04 12.75 15.2993V17C12.75 17.4142 12.4142 17.75 12 17.75C11.5858 17.75 11.25 17.4142 11.25 17V15.2993C10.8016 15.04 10.5 14.5552 10.5 14C10.5 13.1716 11.1716 12.5 12 12.5C12.8284 12.5 13.5 13.1716 13.5 14Z" fill="white"/>
</g>
</svg>
