<svg width="24" height="24" viewBox="0 0 24 24"  fill="none"  xmlns="http://www.w3.org/2000/svg">
<g opacity="0.8">
<path d="M11.7385 5.31356C12.2263 5.1127 12.7737 5.1127 13.2615 5.31356L19.2035 7.76026C19.864 8.03224 19.864 8.96776 19.2035 9.23974L13.2615 11.6864C12.7737 11.8873 12.2263 11.8873 11.7385 11.6864L5.79652 9.23974C5.13599 8.96776 5.13598 8.03224 5.79652 7.76026L11.7385 5.31356Z" fill="white"/>
<path d="M19 12L13.2615 14.3629C12.7737 14.5638 12.2263 14.5638 11.7385 14.3629L6 12" stroke="white" stroke-width="1.5" stroke-linecap="round" stroke-linejoin="round"/>
<path d="M19 15L13.2615 17.3629C12.7737 17.5638 12.2263 17.5638 11.7385 17.3629L6 15" stroke="white" stroke-width="1.5" stroke-linecap="round" stroke-linejoin="round"/>
</g>
</svg>
