<svg width="24" height="24" viewBox="0 0 24 24"  fill="none"  xmlns="http://www.w3.org/2000/svg">
<path d="M1 9V20.5904L7.37241 16.6747L14.9034 22L22 17.9277V9" stroke="white" stroke-opacity="0.8" stroke-width="1.5" stroke-linecap="round" stroke-linejoin="round"/>
<path d="M5.75 6.58824C5.75 7.29891 6.07689 8.20243 6.66475 9.21817C7.24235 10.2162 8.02294 11.2401 8.81973 12.1708C9.61409 13.0987 10.4106 13.9178 11.0097 14.5058C11.1943 14.687 11.3597 14.8457 11.5 14.9786C11.6403 14.8457 11.8057 14.687 11.9903 14.5058C12.5894 13.9178 13.3859 13.0987 14.1803 12.1708C14.9771 11.2401 15.7576 10.2162 16.3353 9.21817C16.9231 8.20243 17.25 7.29891 17.25 6.58824C17.25 3.3543 14.6661 0.75 11.5 0.75C8.33386 0.75 5.75 3.3543 5.75 6.58824Z" stroke="white" stroke-opacity="0.8" stroke-width="1.5"/>
<circle r="2" transform="matrix(-1 0 0 1 11.5 6)" fill="white" fill-opacity="0.8"/>
</svg>
