<svg width="24" height="24" viewBox="0 0 24 24" fill="none" xmlns="http://www.w3.org/2000/svg">
<path fill-rule="evenodd" clip-rule="evenodd" d="M3.5 4.5V8.5H20.5V4.5H3.5ZM3 3C2.44772 3 2 3.44772 2 4V9C2 9.55228 2.44772 10 3 10H21C21.5523 10 22 9.55228 22 9V4C22 3.44772 21.5523 3 21 3H3ZM3.5 12.5V14H10V12.5H3.5ZM3 11C2.44772 11 2 11.4477 2 12V14.5C2 15.0523 2.44772 15.5 3 15.5H10.5C11.0523 15.5 11.5 15.0523 11.5 14.5V12C11.5 11.4477 11.0523 11 10.5 11H3ZM3.5 19.5V18H10V19.5H3.5ZM2 17.5C2 16.9477 2.44772 16.5 3 16.5H10.5C11.0523 16.5 11.5 16.9477 11.5 17.5V20C11.5 20.5523 11.0523 21 10.5 21H3C2.44772 21 2 20.5523 2 20V17.5ZM14 12.5V14H20.5V12.5H14ZM13.5 11C12.9477 11 12.5 11.4477 12.5 12V14.5C12.5 15.0523 12.9477 15.5 13.5 15.5H21C21.5523 15.5 22 15.0523 22 14.5V12C22 11.4477 21.5523 11 21 11H13.5ZM14 19.5V18H20.5V19.5H14ZM12.5 17.5C12.5 16.9477 12.9477 16.5 13.5 16.5H21C21.5523 16.5 22 16.9477 22 17.5V20C22 20.5523 21.5523 21 21 21H13.5C12.9477 21 12.5 20.5523 12.5 20V17.5Z" fill="white" fill-opacity="0.8"/>
</svg>
