<svg width="18" height="14" viewBox="0 0 18 14" fill="#ffffff" xmlns="http://www.w3.org/2000/svg">

<path fill-rule="evenodd" clip-rule="evenodd" d="M10.1211 2.49262H9.16724C8.48589 2.49262 7.94081 1.93871 7.94081 1.24631C7.94081 0.553917 8.48589 0 9.16724 0H14.618C15.2994 0 15.8445 0.553917 15.8445 1.24631C15.8321 1.92612 15.287 2.49262 14.6056 2.49262H13.4907V3.00877H17.331C17.7027 3.00877 18 3.31091 18 3.68858V11.6574C18 12.0477 17.6903 12.375 17.2939 12.375H15.6937C15.7306 12.1933 15.75 12.0051 15.75 11.8125C15.75 10.2592 14.4908 9 12.9375 9C11.3842 9 10.125 10.2592 10.125 11.8125C10.125 12.0051 10.1444 12.1933 10.1813 12.375H7.81874C7.85563 12.1933 7.875 12.0051 7.875 11.8125C7.875 10.2592 6.6158 9 5.0625 9C3.5092 9 2.25 10.2592 2.25 11.8125C2.25 12.0051 2.26937 12.1933 2.30626 12.375H0.668961C0.297316 12.3624 0 12.0603 0 11.6826V8.92561C0 7.89331 0.817619 7.06244 1.83345 7.06244H3.61734C3.98899 7.06244 4.32347 6.84842 4.4969 6.52111L5.7605 4.02848C6.08259 3.39903 6.71438 3.00877 7.40812 3.00877H10.1211V2.49262ZM5.625 6.75L6.66867 4.57568C6.8559 4.18562 7.25023 3.9375 7.68289 3.9375H10.125V6.75H5.625Z" fill="white"/>
<path d="M7 12C7 13.1046 6.10457 14 5 14C3.89543 14 3 13.1046 3 12C3 10.8954 3.89543 10 5 10C6.10457 10 7 10.8954 7 12Z" fill="white"/>
<path d="M15 12C15 13.1046 14.1046 14 13 14C11.8954 14 11 13.1046 11 12C11 10.8954 11.8954 10 13 10C14.1046 10 15 10.8954 15 12Z" fill="white"/>

</svg>
