<svg width="24" height="24" viewBox="0 0 24 24" fill="none" xmlns="http://www.w3.org/2000/svg">
<g opacity="0.6">
<path fill-rule="evenodd" clip-rule="evenodd" d="M13.75 4.25C14.1642 4.25 14.5 4.58579 14.5 5V19C14.5 19.4142 14.1642 19.75 13.75 19.75C13.3358 19.75 13 19.4142 13 19V12.75H4.52511L6.81586 15.0408C7.10876 15.3336 7.10876 15.8085 6.81586 16.1014C6.52297 16.3943 6.0481 16.3943 5.7552 16.1014L2.21967 12.5659C1.92678 12.273 1.92678 11.7981 2.21967 11.5052L5.7552 7.96969C6.0481 7.67679 6.52297 7.67679 6.81586 7.96969C7.10876 8.26258 7.10876 8.73745 6.81586 9.03035L4.59621 11.25H13V5C13 4.58579 13.3358 4.25 13.75 4.25ZM16 5C16 4.58579 16.3358 4.25 16.75 4.25H20.75C21.1642 4.25 21.5 4.58579 21.5 5V19C21.5 19.4142 21.1642 19.75 20.75 19.75H16.75C16.3358 19.75 16 19.4142 16 19V5ZM20 5.75H17.5V18.25H20V5.75Z" fill="white"/>
</g>
</svg>
