<svg width="24" height="24" viewBox="0 0 24 24" fill="none" xmlns="http://www.w3.org/2000/svg">
<path fill-rule="evenodd" clip-rule="evenodd" d="M2.25 5C2.25 4.58579 2.58579 4.25 3 4.25H7C7.41421 4.25 7.75 4.58579 7.75 5V19C7.75 19.4142 7.41421 19.75 7 19.75H3C2.58579 19.75 2.25 19.4142 2.25 19V5ZM3.75 5.75V18.25H6.25V5.75H3.75ZM10 4.25C10.4142 4.25 10.75 4.58579 10.75 5V11.2927C10.8282 11.265 10.9123 11.25 11 11.25H20.6893L18.4697 9.03033C18.1768 8.73744 18.1768 8.26256 18.4697 7.96967C18.7626 7.67678 19.2374 7.67678 19.5303 7.96967L23.0659 11.5052C23.3588 11.7981 23.3588 12.273 23.0659 12.5659L19.5303 16.1014C19.2374 16.3943 18.7626 16.3943 18.4697 16.1014C18.1768 15.8085 18.1768 15.3336 18.4697 15.0407L20.7604 12.75H11C10.9123 12.75 10.8282 12.735 10.75 12.7073V19C10.75 19.4142 10.4142 19.75 10 19.75C9.58579 19.75 9.25 19.4142 9.25 19V5C9.25 4.58579 9.58579 4.25 10 4.25Z" fill="white" fill-opacity="0.6"/>
</svg>
