<svg width="24" height="24" viewBox="0 0 24 24"  fill="none"  xmlns="http://www.w3.org/2000/svg">
<path fill-rule="evenodd" clip-rule="evenodd" d="M7.75 6.00002C7.75 5.69668 7.56727 5.4232 7.28701 5.30711C7.00676 5.19103 6.68417 5.25519 6.46967 5.46969L4.46967 7.46969C4.17678 7.76258 4.17678 8.23746 4.46967 8.53035C4.76256 8.82325 5.23744 8.82325 5.53033 8.53035L6.25 7.81068V18C6.25 18.4142 6.58579 18.75 7 18.75C7.41421 18.75 7.75 18.4142 7.75 18V6.00002ZM18 5.25002H10C9.58579 5.25002 9.25 5.58581 9.25 6.00002C9.25 6.41424 9.58579 6.75002 10 6.75002H18C18.4142 6.75002 18.75 6.41424 18.75 6.00002C18.75 5.58581 18.4142 5.25002 18 5.25002ZM9.25 12C9.25 11.5858 9.58579 11.25 10 11.25H18C18.4142 11.25 18.75 11.5858 18.75 12C18.75 12.4142 18.4142 12.75 18 12.75H10C9.58579 12.75 9.25 12.4142 9.25 12ZM10 17.25C9.58579 17.25 9.25 17.5858 9.25 18C9.25 18.4142 9.58579 18.75 10 18.75H18C18.4142 18.75 18.75 18.4142 18.75 18C18.75 17.5858 18.4142 17.25 18 17.25H10Z" fill="white"/>
</svg>
