<svg width="24" height="24" viewBox="0 0 24 24"  fill="none"  xmlns="http://www.w3.org/2000/svg">
<path fill-rule="evenodd" clip-rule="evenodd" d="M5 16.8912H3.5H3C2.44772 16.8912 2 16.4434 2 15.8912V8.10922C2 7.55693 2.44772 7.10922 3 7.10922H5.0001L11.4784 3.1484C12.1447 2.74099 13 3.22055 13 4.00157V19.9985C13 20.7795 12.1448 21.2591 11.4784 20.8517L5 16.8912V16.8912ZM11.5 19.1068L5.80529 15.6254C5.57265 15.4771 5.29636 15.3912 5 15.3912H3.5V8.60922H5.0001C5.27622 8.60922 5.54697 8.533 5.78255 8.38897L11.5 4.89332V19.1068ZM21.7768 8.21991C22.0697 8.51281 22.0697 8.98768 21.7768 9.28057L19.0589 11.9985L21.7768 14.7164C22.0697 15.0093 22.0697 15.4841 21.7768 15.777C21.4839 16.0699 21.009 16.0699 20.7161 15.777L17.9982 13.0591L15.2803 15.777C14.9874 16.0699 14.5126 16.0699 14.2197 15.777C13.9268 15.4841 13.9268 15.0093 14.2197 14.7164L16.9376 11.9985L14.2197 9.28057C13.9268 8.98768 13.9268 8.51281 14.2197 8.21991C14.5126 7.92702 14.9874 7.92702 15.2803 8.21991L17.9982 10.9378L20.7161 8.21991C21.009 7.92702 21.4839 7.92702 21.7768 8.21991Z" fill="white"/>
</svg>
