<svg width="24" height="24" viewBox="0 0 24 24" fill="none" xmlns="http://www.w3.org/2000/svg">
<g opacity="0.6">
<path d="M17.8613 5.09766C17.8613 4.68344 17.5255 4.34766 17.1113 4.34766C16.6971 4.34766 16.3613 4.68344 16.3613 5.09766H17.8613ZM16.3613 19.0074C16.3613 19.4216 16.6971 19.7574 17.1113 19.7574C17.5255 19.7574 17.8613 19.4216 17.8613 19.0074H16.3613ZM16.3613 5.09766V19.0074H17.8613V5.09766H16.3613Z" fill="#3CE5D3"/>
<path d="M4.46924 11.6139C4.22616 11.8139 4.22616 12.1861 4.46924 12.3861L12.7387 19.1904C13.065 19.4588 13.5564 19.2267 13.5564 18.8043L13.5564 5.19575C13.5564 4.77329 13.065 4.54123 12.7387 4.80965L4.46924 11.6139Z" fill="#3CE5D3"/>
</g>
</svg>
