<svg width="24" height="24" viewBox="0 0 24 24" fill="none" xmlns="http://www.w3.org/2000/svg">
<g opacity="0.6">
<path d="M5.88086 5.09766C5.88086 4.68344 6.21665 4.34766 6.63086 4.34766C7.04507 4.34766 7.38086 4.68344 7.38086 5.09766H5.88086ZM7.38086 19.0074C7.38086 19.4216 7.04507 19.7574 6.63086 19.7574C6.21665 19.7574 5.88086 19.4216 5.88086 19.0074H7.38086ZM7.38086 5.09766V19.0074H5.88086V5.09766H7.38086Z" fill="#3CE5D3"/>
<path d="M18.2729 11.6139C18.516 11.8139 18.516 12.1861 18.2729 12.3861L10.0035 19.1904C9.67724 19.4588 9.18577 19.2267 9.18577 18.8043L9.18577 5.19575C9.18577 4.77329 9.67724 4.54123 10.0035 4.80965L18.2729 11.6139Z" fill="#3CE5D3"/>
</g>
</svg>
