<svg width="24" height="24" viewBox="0 0 24 24" fill="none" xmlns="http://www.w3.org/2000/svg">
<g opacity="0.8">
<path fill-rule="evenodd" clip-rule="evenodd" d="M4.25 2C4.25 1.58579 4.58579 1.25 5 1.25H20C20.4142 1.25 20.75 1.58579 20.75 2V7V22C20.75 22.4142 20.4142 22.75 20 22.75H5C4.58579 22.75 4.25 22.4142 4.25 22V16.75H4C3.58579 16.75 3.25 16.4142 3.25 16C3.25 15.5858 3.58579 15.25 4 15.25H4.25V12.75H4C3.58579 12.75 3.25 12.4142 3.25 12C3.25 11.5858 3.58579 11.25 4 11.25H4.25V8.75H4C3.58579 8.75 3.25 8.41421 3.25 8C3.25 7.58579 3.58579 7.25 4 7.25H4.25V2ZM5.75 21.25V16.75H6C6.41421 16.75 6.75 16.4142 6.75 16C6.75 15.5858 6.41421 15.25 6 15.25H5.75V12.75H6C6.41421 12.75 6.75 12.4142 6.75 12C6.75 11.5858 6.41421 11.25 6 11.25H5.75V8.75H6C6.41421 8.75 6.75 8.41421 6.75 8C6.75 7.58579 6.41421 7.25 6 7.25H5.75V2.75H7.25V21.25H5.75ZM8.75 21.25H19.25V7V2.75H8.75V21.25ZM11.25 7C11.25 6.58579 11.5858 6.25 12 6.25H16C16.4142 6.25 16.75 6.58579 16.75 7C16.75 7.41421 16.4142 7.75 16 7.75H12C11.5858 7.75 11.25 7.41421 11.25 7ZM12 9.25C11.5858 9.25 11.25 9.58579 11.25 10C11.25 10.4142 11.5858 10.75 12 10.75H15C15.4142 10.75 15.75 10.4142 15.75 10C15.75 9.58579 15.4142 9.25 15 9.25H12Z" fill="white"/>
</g>
</svg>
