<svg width="32" height="24" viewBox="0 0 32 24" fill="none" xmlns="http://www.w3.org/2000/svg">
<path fill-rule="evenodd" clip-rule="evenodd" d="M2 1.52588e-05C0.89543 1.52588e-05 0 0.895447 0 2.00002V22C0 23.1046 0.895431 24 2 24H15C15.5523 24 16 23.5523 16 23C16 22.4477 15.5523 22 15 22H2V2.00002L30 2.00002V10C30 10.5523 30.4477 11 31 11C31.5523 11 32 10.5523 32 10V2.00002C32 0.895445 31.1046 1.52588e-05 30 1.52588e-05H2ZM5 5.00002C4.44772 5.00002 4 5.44773 4 6.00002C4 6.5523 4.44772 7.00002 5 7.00002L27 7.00002C27.5523 7.00002 28 6.5523 28 6.00002C28 5.44773 27.5523 5.00002 27 5.00002L5 5.00002ZM4 11C4 10.4477 4.44772 10 5 10L15 10C15.5523 10 16 10.4477 16 11C16 11.5523 15.5523 12 15 12L5 12C4.44772 12 4 11.5523 4 11ZM5 15C4.44772 15 4 15.4477 4 16C4 16.5523 4.44772 17 5 17L15 17C15.5523 17 16 16.5523 16 16C16 15.4477 15.5523 15 15 15L5 15Z" fill="white" fill-opacity="0.8"/>
</svg>
