<svg width="24" height="24" viewBox="0 0 24 24" fill="none" xmlns="http://www.w3.org/2000/svg">
<path fill-rule="evenodd" clip-rule="evenodd" d="M5.82843 20.2635L5.12132 19.5563L8.61283 16.0648C8.30519 15.6169 8.09909 15.0937 8.02774 14.5286L3.70711 18.8492C3.31658 19.2398 3.31658 19.8729 3.70711 20.2635L5.12132 21.6777C5.51184 22.0682 6.14501 22.0682 6.53553 21.6777L10.7156 17.4976C10.1846 17.376 9.69955 17.1336 9.29106 16.8008L5.82843 20.2635ZM14.215 11.8769C14.5478 12.2853 14.7902 12.7704 14.9118 13.3014L22.0919 6.12132C22.4824 5.7308 22.4824 5.09763 22.0919 4.70711L20.6777 3.29289C20.2871 2.90237 19.654 2.90237 19.2635 3.29289L11.9428 10.6135C12.5079 10.6849 13.0311 10.891 13.479 11.1986L19.9706 4.70711L20.6777 5.41421L14.215 11.8769ZM14.4558 15.5858H21C21.5523 15.5858 22.0052 15.137 21.9501 14.5874C21.7788 12.8801 21.1712 11.2491 20.1916 9.85006L19.1116 10.9301C19.7374 11.8861 20.1647 12.9596 20.3666 14.0858H15.9558L14.4558 15.5858ZM14.185 7.37141C13.6247 7.22238 13.0475 7.13018 12.4616 7.09834C12.4865 7.17297 12.5 7.25282 12.5 7.33581V8.83581C12.5 9.25003 12.1642 9.58581 11.75 9.58581C11.3358 9.58581 11 9.25003 11 8.83581V7.33581C11 7.26874 11.0088 7.20372 11.0253 7.14185C9.46022 7.32246 7.97551 7.93494 6.73843 8.91001L7.65165 9.82323C7.94454 10.1161 7.94454 10.591 7.65165 10.8839C7.35876 11.1768 6.88388 11.1768 6.59099 10.8839L5.64645 9.93935C4.6022 11.1143 3.90852 12.5511 3.63336 14.0858L7.47055 14.0858L5.97055 15.5858L3 15.5858C2.44772 15.5858 1.99481 15.137 2.04993 14.5874C2.27918 12.3019 3.29038 10.1533 4.92893 8.51474C6.8043 6.63938 9.34784 5.58581 12 5.58581C13.1638 5.58581 14.3068 5.7887 15.3815 6.17488L14.185 7.37141ZM11.5 15.0858C10.9477 15.0858 10.5 14.6381 10.5 14.0858C10.5 13.5335 10.9477 13.0858 11.5 13.0858C12.0523 13.0858 12.5 13.5335 12.5 14.0858C12.5 14.6381 12.0523 15.0858 11.5 15.0858ZM9 14.0858C9 12.7051 10.1193 11.5858 11.5 11.5858C12.8807 11.5858 14 12.7051 14 14.0858C14 15.4665 12.8807 16.5858 11.5 16.5858C10.1193 16.5858 9 15.4665 9 14.0858Z" fill="black"/>
</svg>
