<svg width="26" height="9" viewBox="0 0 26 9" fill="#ffffff" xmlns="http://www.w3.org/2000/svg">
<path d="M8.93 1.42H10.16C11.31 1.42 11.94 1.76 11.94 2.73C11.94 3.68 11.31 4.14 10.16 4.14H8.93V1.42ZM13.08 8L11.2 4.79C12.2 4.55 12.86 3.87 12.86 2.73C12.86 1.2 11.79 0.67 10.3 0.67H8V8H8.93V4.89H10.25L12.03 8H13.08ZM14.3477 8H18.6877V7.21H15.2777V4.54H18.0577V3.75H15.2777V1.45H18.5777V0.67H14.3477V8ZM22.9966 8.13C23.9466 8.13 24.6666 7.75 25.2466 7.08L24.7366 6.5C24.2666 7.01 23.7366 7.32 23.0366 7.32C21.6366 7.32 20.7566 6.16 20.7566 4.31C20.7566 2.48 21.6766 1.34 23.0666 1.34C23.6966 1.34 24.1866 1.63 24.5666 2.04L25.0666 1.44C24.6466 0.97 23.9466 0.53 23.0566 0.53C21.1966 0.53 19.8066 1.97 19.8066 4.34C19.8066 6.72 21.1766 8.13 22.9966 8.13Z" fill="#3CE5D3"/>
<circle cx="3" cy="4" r="3" fill="#3CE5D3"/>
</svg>
