<svg width="24" height="24" viewBox="0 0 24 24" fill="none" xmlns="http://www.w3.org/2000/svg">
<path fill-rule="evenodd" clip-rule="evenodd" d="M20.5303 4.53033C20.8232 4.23744 20.8232 3.76256 20.5303 3.46967C20.2374 3.17678 19.7625 3.17678 19.4696 3.46967L15.4696 7.46967C15.1767 7.76256 15.1767 8.23744 15.4696 8.53033C15.7625 8.82322 16.2374 8.82322 16.5303 8.53033L20.5303 4.53033ZM8.5303 16.5303C8.82319 16.2374 8.82319 15.7626 8.5303 15.4697C8.23741 15.1768 7.76253 15.1768 7.46964 15.4697L3.46964 19.4697C3.17675 19.7626 3.17675 20.2374 3.46964 20.5303C3.76253 20.8232 4.23741 20.8232 4.5303 20.5303L8.5303 16.5303Z" fill="white"/>
<path d="M16 5.01489V7.99996H18.9851M5.05224 15.9999H8L8.03731 18.985" stroke="white" stroke-width="1.5" stroke-linecap="round" stroke-linejoin="round"/>
<mask id="path-3-inside-1" fill="white">
<rect x="8" y="8" width="8" height="8" rx="1"/>
</mask>
<rect x="8" y="8" width="8" height="8" rx="1" stroke="white" stroke-width="3" mask="url(#path-3-inside-1)"/>
</svg>
