<svg width="24" height="24" viewBox="0 0 24 24" fill="none" xmlns="http://www.w3.org/2000/svg">
<path fill-rule="evenodd" clip-rule="evenodd" d="M19.3341 14.5047C19.9357 12.7432 19.8832 10.824 19.1862 9.098C18.4891 7.372 17.1942 5.95453 15.538 5.10475C13.8819 4.25498 11.9752 4.02967 10.1666 4.47001C8.35805 4.91036 6.76836 5.98695 5.68823 7.50294C4.6081 9.01893 4.10969 10.873 4.28413 12.7263C4.38558 13.8042 4.71071 14.8399 5.22945 15.7712L4.33251 15.3277C3.96121 15.1441 3.51138 15.2963 3.32779 15.6676C3.1442 16.0389 3.29637 16.4887 3.66767 16.6723L6.89973 18.2704C7.12451 18.3816 7.38998 18.373 7.60715 18.2476C7.82431 18.1222 7.96445 17.8966 7.98059 17.6464L8.21264 14.0483C8.2393 13.6349 7.92582 13.2782 7.51247 13.2516C7.09911 13.2249 6.74241 13.5384 6.71575 13.9518L6.63487 15.2059C6.16115 14.4131 5.86537 13.519 5.77753 12.5857C5.63685 11.0912 6.0388 9.59592 6.90987 8.37335C7.78094 7.15077 9.06295 6.28256 10.5215 5.92744C11.98 5.57232 13.5177 5.75402 14.8533 6.43932C16.1889 7.12463 17.2332 8.26775 17.7953 9.65968C18.3574 11.0516 18.3998 12.5994 17.9146 14.02C17.4294 15.4405 16.4492 16.6391 15.1531 17.3964C13.857 18.1537 12.3316 18.4192 10.8558 18.1444C10.4486 18.0685 10.057 18.3372 9.98114 18.7444C9.90531 19.1516 10.1739 19.5432 10.5812 19.619C12.4111 19.9598 14.3026 19.6306 15.9098 18.6915C17.517 17.7524 18.7325 16.2663 19.3341 14.5047Z" fill="#CCCCCC"/>
</svg>
