<svg width="24" height="24" viewBox="0 0 24 24" fill="none" xmlns="http://www.w3.org/2000/svg">
<path fill-rule="evenodd" clip-rule="evenodd" d="M2.21967 16.8738C1.92678 16.5809 1.92678 16.106 2.21967 15.8131L15.8131 2.21967C16.106 1.92678 16.5809 1.92678 16.8738 2.21967L21.405 6.75083C21.6978 7.04372 21.6978 7.51859 21.405 7.81149L7.81149 21.405C7.51859 21.6978 7.04372 21.6978 6.75083 21.405L2.21967 16.8738ZM3.81066 16.3435L7.28116 19.814L19.814 7.28116L16.3435 3.81066L15.093 5.06111L17.378 7.34606C17.6709 7.63896 17.6709 8.11383 17.378 8.40672C17.0851 8.69962 16.6102 8.69962 16.3173 8.40672L14.0324 6.12177L12.6074 7.54673L14.0303 8.96967C14.3232 9.26256 14.3232 9.73744 14.0303 10.0303C13.7374 10.3232 13.2626 10.3232 12.9697 10.0303L11.5467 8.60739L9.60277 10.5514L12.0983 13.0352C12.3919 13.3274 12.393 13.8023 12.1008 14.0959C11.8086 14.3895 11.3337 14.3906 11.0401 14.0984L8.54211 11.612L6.60739 13.5467L8.03033 14.9697C8.32322 15.2626 8.32322 15.7374 8.03033 16.0303C7.73744 16.3232 7.26256 16.3232 6.96967 16.0303L5.54673 14.6074L3.81066 16.3435Z" fill="black"/>
</svg>
