<svg width="24" height="24" viewBox="0 0 24 24" fill="none" xmlns="http://www.w3.org/2000/svg">
<g opacity="0.8">
<path fill-rule="evenodd" clip-rule="evenodd" d="M14 4.25C14.4142 4.25 14.75 4.58579 14.75 5V10C14.75 10.0315 14.7481 10.0626 14.7443 10.0931C15.8031 10.3633 16.6367 11.1969 16.9069 12.2557C16.9374 12.2519 16.9685 12.25 17 12.25H19C19.4142 12.25 19.75 12.5858 19.75 13C19.75 13.4142 19.4142 13.75 19 13.75H17C16.9685 13.75 16.9374 13.7481 16.9069 13.7443C16.6367 14.8031 15.8031 15.6367 14.7443 15.9069C14.7481 15.9374 14.75 15.9685 14.75 16V19C14.75 19.4142 14.4142 19.75 14 19.75C13.5858 19.75 13.25 19.4142 13.25 19V16C13.25 15.9685 13.2519 15.9374 13.2557 15.9069C12.1969 15.6367 11.3633 14.8031 11.0931 13.7443C11.0626 13.7481 11.0315 13.75 11 13.75H5C4.58579 13.75 4.25 13.4142 4.25 13C4.25 12.5858 4.58579 12.25 5 12.25H11C11.0315 12.25 11.0626 12.2519 11.0931 12.2557C11.3633 11.1969 12.1969 10.3633 13.2557 10.0931C13.2519 10.0626 13.25 10.0315 13.25 10V5C13.25 4.58579 13.5858 4.25 14 4.25ZM15.5 13C15.5 13.8284 14.8284 14.5 14 14.5C13.1716 14.5 12.5 13.8284 12.5 13C12.5 12.1716 13.1716 11.5 14 11.5C14.8284 11.5 15.5 12.1716 15.5 13Z" fill="#D3F261"/>
</g>
</svg>
