<svg width="24" height="24" viewBox="0 0 24 24" fill="none" xmlns="http://www.w3.org/2000/svg">
<g opacity="0.6">
<path fill-rule="evenodd" clip-rule="evenodd" d="M4.25 3C4.25 2.58579 4.58579 2.25 5 2.25H19C19.4142 2.25 19.75 2.58579 19.75 3V5.57143C19.75 5.98564 19.4142 6.32143 19 6.32143C18.5858 6.32143 18.25 5.98564 18.25 5.57143V3.75H5.75V20.25H18.25V18.4286C18.25 18.0144 18.5858 17.6786 19 17.6786C19.4142 17.6786 19.75 18.0144 19.75 18.4286V21C19.75 21.4142 19.4142 21.75 19 21.75H5C4.58579 21.75 4.25 21.4142 4.25 21V3ZM16.4697 9.46967C16.7626 9.17678 17.2374 9.17678 17.5303 9.46967L19.6517 11.591C19.9445 11.8839 19.9445 12.3588 19.6517 12.6517L17.5303 14.773C17.2374 15.0659 16.7626 15.0659 16.4697 14.773C16.1768 14.4801 16.1768 14.0052 16.4697 13.7123L17.182 13H9.75C9.33579 13 9 12.6642 9 12.25C9 11.8358 9.33579 11.5 9.75 11.5H17.4393L16.4697 10.5303C16.1768 10.2374 16.1768 9.76256 16.4697 9.46967Z" fill="white"/>
</g>
</svg>
