<svg width="16" height="16" viewBox="0 0 16 16" fill="none" xmlns="http://www.w3.org/2000/svg">
<path fill-rule="evenodd" clip-rule="evenodd" d="M3 5.49999H3.45416L3.83205 5.24806L7.5 2.80276V13.1972L3.83205 10.7519L3.45416 10.5H3L1.5 10.5V5.49999L3 5.49999ZM9 14.1315C9 14.9302 8.10985 15.4066 7.4453 14.9635L3 12L1 12C0.45 12 0 11.55 0 11V4.99999C0 4.44999 0.45 3.99999 1 3.99999L3 3.99999L7.4453 1.03645C8.10986 0.593416 9 1.06981 9 1.8685V14.1315ZM12.3132 2.24729C12.5907 1.93984 13.065 1.91562 13.3724 2.1932C14.9811 3.64555 15.9953 5.74298 15.9953 8.06174C15.9953 10.3129 15.0392 12.3409 13.5274 13.7905C13.2284 14.0771 12.7536 14.0672 12.467 13.7682C12.1803 13.4692 12.1903 12.9944 12.4893 12.7078C13.7258 11.5221 14.4953 9.8775 14.4953 8.06174C14.4953 6.18912 13.6774 4.4894 12.3673 3.30657C12.0598 3.02899 12.0356 2.55474 12.3132 2.24729ZM10.2492 4.11149C10.5576 3.83491 11.0317 3.86067 11.3083 4.16902C12.2366 5.20398 12.7996 6.57373 12.7996 8.06234C12.7996 9.4697 12.2965 10.7549 11.4708 11.772C11.2097 12.0936 10.7373 12.1426 10.4158 11.8815C10.0942 11.6204 10.0451 11.1481 10.3062 10.8265C10.9292 10.0592 11.2996 9.10342 11.2996 8.06234C11.2996 6.95727 10.8826 5.94083 10.1917 5.17059C9.91512 4.86224 9.94088 4.38806 10.2492 4.11149Z" fill="#3CE5D3"/>
</svg>
