<svg width="24" height="24" viewBox="0 0 24 24" fill="none" xmlns="http://www.w3.org/2000/svg">
<path fill-rule="evenodd" clip-rule="evenodd" d="M4.5 4.5V19.5H19.5V4.5H18V12C18 12.5523 17.5523 13 17 13H7C6.44772 13 6 12.5523 6 12V4.5H4.5ZM7.5 4.5H16.5V11.5H7.5V4.5ZM20 3H17H7H4C3.44772 3 3 3.44772 3 4V20C3 20.5523 3.44772 21 4 21H20C20.5523 21 21 20.5523 21 20V4C21 3.44772 20.5523 3 20 3ZM14 6C13.4477 6 13 6.44772 13 7V9C13 9.55228 13.4477 10 14 10C14.5523 10 15 9.55228 15 9V7C15 6.44772 14.5523 6 14 6Z" fill="#3CE5D3"/>
</svg>
