<svg width="24" height="24" viewBox="0 0 24 24" fill="none" xmlns="http://www.w3.org/2000/svg">
<path fill-rule="evenodd" clip-rule="evenodd" d="M12 1.75C12.4142 1.75 12.75 2.08579 12.75 2.5V3.03081C17.1223 3.39152 20.6085 6.87765 20.9692 11.25H21.5C21.9142 11.25 22.25 11.5858 22.25 12C22.25 12.4142 21.9142 12.75 21.5 12.75H20.9692C20.6085 17.1223 17.1223 20.6085 12.75 20.9692V21.5C12.75 21.9142 12.4142 22.25 12 22.25C11.5858 22.25 11.25 21.9142 11.25 21.5V20.9692C6.87765 20.6085 3.39152 17.1223 3.0308 12.75H2.5C2.08579 12.75 1.75 12.4142 1.75 12C1.75 11.5858 2.08579 11.25 2.5 11.25H3.0308C3.39152 6.87765 6.87765 3.39152 11.25 3.03081V2.5C11.25 2.08579 11.5858 1.75 12 1.75ZM4.53703 12.75H5.5C5.91421 12.75 6.25 12.4142 6.25 12C6.25 11.5858 5.91421 11.25 5.5 11.25H4.53703C4.88883 7.70669 7.70669 4.88883 11.25 4.53703V5.5C11.25 5.91421 11.5858 6.25 12 6.25C12.4142 6.25 12.75 5.91421 12.75 5.5V4.53703C16.2933 4.88883 19.1112 7.70669 19.463 11.25H18.5C18.0858 11.25 17.75 11.5858 17.75 12C17.75 12.4142 18.0858 12.75 18.5 12.75H19.463C19.1112 16.2933 16.2933 19.1112 12.75 19.463V18.5C12.75 18.0858 12.4142 17.75 12 17.75C11.5858 17.75 11.25 18.0858 11.25 18.5V19.463C7.70669 19.1112 4.88883 16.2933 4.53703 12.75Z" fill="#CCCCCC"/>
<circle cx="12" cy="12" r="3.25" stroke="#CCCCCC" stroke-width="1.5"/>
</svg>
