<svg width="24" height="24" viewBox="0 0 24 24"  fill="none"  xmlns="http://www.w3.org/2000/svg">
<rect x="3" y="4" width="18" height="13" stroke="white" stroke-width="1.5" stroke-linecap="round" stroke-linejoin="round"/>
<path d="M18 7.35937L13 7.35938" stroke="white" stroke-width="1.5" stroke-linecap="round" stroke-linejoin="round"/>
<path d="M18 13.3594L13 13.3594" stroke="white" stroke-width="1.5" stroke-linecap="round" stroke-linejoin="round"/>
<path d="M6.30566 7.67769L7.639 8.85537L10.3057 6.5" stroke="white" stroke-width="1.5" stroke-linecap="round" stroke-linejoin="round"/>
<circle cx="8" cy="12.8594" r="1.5" stroke="white" stroke-width="1.5"/>
<path d="M7 19.25C6.58579 19.25 6.25 19.5858 6.25 20C6.25 20.4142 6.58579 20.75 7 20.75L7 19.25ZM17 20.75C17.4142 20.75 17.75 20.4142 17.75 20C17.75 19.5858 17.4142 19.25 17 19.25L17 20.75ZM7 20.75L17 20.75L17 19.25L7 19.25L7 20.75Z" fill="white"/>
</svg>
