<svg width="32" height="24" viewBox="0 0 32 24" fill="none" xmlns="http://www.w3.org/2000/svg">
<path fill-rule="evenodd" clip-rule="evenodd" d="M2 2.00001V22H30V2.00001H2ZM1 7.62939e-06C0.447715 7.62939e-06 0 0.447723 0 1.00001V23C0 23.5523 0.447715 24 1 24H31C31.5523 24 32 23.5523 32 23V1.00001C32 0.447723 31.5523 7.62939e-06 31 7.62939e-06H1ZM12.7208 5.30687C13.1036 5.70496 13.0912 6.338 12.6931 6.72081L8.53347 10.7208C8.33302 10.9136 8.06137 11.0141 7.78372 10.9984C7.50608 10.9827 7.24753 10.852 7.07016 10.6378L5.22982 8.41561C4.87756 7.99025 4.93682 7.35987 5.36217 7.00761C5.78753 6.65534 6.41792 6.7146 6.77018 7.13996L7.92354 8.53266L11.3069 5.2792C11.705 4.89639 12.338 4.90878 12.7208 5.30687ZM16 7.00001C15.4477 7.00001 15 7.44772 15 8.00001C15 8.55229 15.4477 9.00001 16 9.00001L26 9.00001C26.5523 9.00001 27 8.55229 27 8.00001C27 7.44772 26.5523 7.00001 26 7.00001L16 7.00001ZM15 16C15 15.4477 15.4477 15 16 15L26 15C26.5523 15 27 15.4477 27 16C27 16.5523 26.5523 17 26 17L16 17C15.4477 17 15 16.5523 15 16ZM8 17C7.44772 17 7 16.5523 7 16C7 15.4477 7.44772 15 8 15C8.55228 15 9 15.4477 9 16C9 16.5523 8.55228 17 8 17ZM5 16C5 14.3432 6.34315 13 8 13C9.65685 13 11 14.3432 11 16C11 17.6569 9.65685 19 8 19C6.34315 19 5 17.6569 5 16Z" fill="white" fill-opacity="0.8"/>
</svg>
