<svg width="21" height="20" viewBox="0 0 21 20" fill="none" xmlns="http://www.w3.org/2000/svg">
<g opacity="0.8">
<path fill-rule="evenodd" clip-rule="evenodd" d="M17.3332 9.99984C17.3332 13.7738 14.2738 16.8332 10.4998 16.8332C6.72589 16.8332 3.6665 13.7738 3.6665 9.99984C3.6665 6.22589 6.72589 3.1665 10.4998 3.1665C14.2738 3.1665 17.3332 6.22589 17.3332 9.99984ZM18.8332 9.99984C18.8332 14.6022 15.1022 18.3332 10.4998 18.3332C5.89746 18.3332 2.1665 14.6022 2.1665 9.99984C2.1665 5.39746 5.89746 1.6665 10.4998 1.6665C15.1022 1.6665 18.8332 5.39746 18.8332 9.99984ZM10.4165 4.99984C10.4165 4.58562 10.0807 4.24984 9.6665 4.24984C9.25229 4.24984 8.9165 4.58562 8.9165 4.99984V10.8332C8.9165 11.0692 9.02765 11.2915 9.2165 11.4332L12.5498 13.9332C12.8812 14.1817 13.3513 14.1145 13.5998 13.7832C13.8484 13.4518 13.7812 12.9817 13.4498 12.7332L10.4165 10.4582V4.99984Z" fill="#D3F261"/>
</g>
</svg>
