<svg width="24" height="24" viewBox="0 0 24 24"  fill="none"  xmlns="http://www.w3.org/2000/svg">
<mask id="path-1-inside-1" fill="white">
<rect x="2" y="4" width="20" height="16" rx="1"/>
</mask>
<rect x="2" y="4" width="20" height="16" rx="1" stroke="#3CE5D3" stroke-width="3" mask="url(#path-1-inside-1)"/>
<path fill-rule="evenodd" clip-rule="evenodd" d="M13.2007 9.75L8.79933 9.75C8.53997 9.30165 8.05521 9 7.5 9C6.94479 9 6.46003 9.30165 6.20067 9.75H6C5.58579 9.75 5.25 10.0858 5.25 10.5C5.25 10.9142 5.58579 11.25 6 11.25H6.20067C6.46003 11.6984 6.94479 12 7.5 12C8.05521 12 8.53997 11.6984 8.79933 11.25L13.2007 11.25C13.46 11.6984 13.9448 12 14.5 12C15.0552 12 15.54 11.6984 15.7993 11.25L18 11.25C18.4142 11.25 18.75 10.9142 18.75 10.5C18.75 10.0858 18.4142 9.75 18 9.75L15.7993 9.75C15.54 9.30165 15.0552 9 14.5 9C13.9448 9 13.46 9.30165 13.2007 9.75ZM13.25 13.5C13.25 13.0858 13.5858 12.75 14 12.75H17C17.4142 12.75 17.75 13.0858 17.75 13.5C17.75 13.9142 17.4142 14.25 17 14.25H14C13.5858 14.25 13.25 13.9142 13.25 13.5ZM7 12.75C6.58579 12.75 6.25 13.0858 6.25 13.5C6.25 13.9142 6.58579 14.25 7 14.25H10C10.4142 14.25 10.75 13.9142 10.75 13.5C10.75 13.0858 10.4142 12.75 10 12.75H7Z" fill="#3CE5D3"/>
</svg>
