<svg width="18" height="18" viewBox="0 0 18 18" fill="none" xmlns="http://www.w3.org/2000/svg">
<path fill-rule="evenodd" clip-rule="evenodd" d="M6.75 3.75V3H11.25V3.75H6.75ZM5.25 2.5C5.25 1.94772 5.69772 1.5 6.25 1.5H11.75C12.3023 1.5 12.75 1.94772 12.75 2.5V3.75V4.5H15.5C16.0523 4.5 16.5 4.94772 16.5 5.5V8V15.5C16.5 16.0523 16.0523 16.5 15.5 16.5H2.5C1.94772 16.5 1.5 16.0523 1.5 15.5V8V5.5C1.5 4.94772 1.94772 4.5 2.5 4.5H5.25V3.75V2.5ZM15 7.5H3V6H15V7.5ZM12 9H15V15H3V9H6V10.25C6 11.2165 6.7835 12 7.75 12H10.25C11.2165 12 12 11.2165 12 10.25V9ZM7.5 9V10.25C7.5 10.3881 7.61193 10.5 7.75 10.5H10.25C10.3881 10.5 10.5 10.3881 10.5 10.25V9H7.5Z" fill="#3CE5D3"/>
</svg>
