<svg width="14" height="8" viewBox="0 0 14 8" fill="none" xmlns="http://www.w3.org/2000/svg">
<path d="M9.5 1H10C11.6569 1 13 2.34315 13 4V4C13 5.65685 11.6569 7 10 7V7H6.5V7C6.31549 7 6.22308 6.77692 6.35355 6.64645L7 6M4.5 7H4C2.34315 7 1 5.65685 1 4V4C1 2.34315 2.34315 1 4 1V1H7.5V1C7.68451 1 7.77692 1.22308 7.64645 1.35355L7 2" stroke="white" stroke-linecap="round" stroke-linejoin="round"/>
<path d="M9.5 1H10C11.6569 1 13 2.34315 13 4V4C13 5.65685 11.6569 7 10 7V7H6.5V7C6.31549 7 6.22308 6.77692 6.35355 6.64645L7 6M4.5 7H4C2.34315 7 1 5.65685 1 4V4C1 2.34315 2.34315 1 4 1V1H7.5V1C7.68451 1 7.77692 1.22308 7.64645 1.35355L7 2" stroke="white" stroke-linecap="round" stroke-linejoin="round"/>
<path d="M9.5 1H10C11.6569 1 13 2.34315 13 4V4C13 5.65685 11.6569 7 10 7V7H6.5V7C6.31549 7 6.22308 6.77692 6.35355 6.64645L7 6M4.5 7H4C2.34315 7 1 5.65685 1 4V4C1 2.34315 2.34315 1 4 1V1H7.5V1C7.68451 1 7.77692 1.22308 7.64645 1.35355L7 2" stroke="white" stroke-linecap="round" stroke-linejoin="round"/>
</svg>
