<svg width="24" height="24" viewBox="0 0 24 24" fill="none" xmlns="http://www.w3.org/2000/svg">
<g opacity="0.8">
<path fill-rule="evenodd" clip-rule="evenodd" d="M10.7832 20C11.0593 20 11.2832 19.7761 11.2832 19.5C11.2832 19.2239 11.0593 19 10.7832 19C7.58925 19 5.00005 16.4108 5.00005 13.2168C5.00005 12.9407 4.77619 12.7168 4.50005 12.7168C4.2239 12.7168 4.00005 12.9407 4.00005 13.2168C4.00005 16.9631 7.03697 20 10.7832 20ZM10.7832 17.4865C11.0593 17.4865 11.2832 17.2626 11.2832 16.9865C11.2832 16.7104 11.0593 16.4865 10.7832 16.4865C8.97729 16.4865 7.51331 15.0225 7.51331 13.2166C7.51331 12.9405 7.28945 12.7166 7.01331 12.7166C6.73717 12.7166 6.51331 12.9405 6.51331 13.2166C6.51331 15.5748 8.42501 17.4865 10.7832 17.4865Z" fill="#D3F261"/>
<path fill-rule="evenodd" clip-rule="evenodd" d="M12.495 3.70696C12.1045 3.31643 11.4713 3.31643 11.0808 3.70696L8.70696 6.0808C8.31643 6.47132 8.31643 7.10448 8.70696 7.49501L9.56557 8.35363C9.9561 8.74415 10.5893 8.74415 10.9798 8.35363L11.636 7.69737L12.3935 8.45486L10.6007 10.2477C10.2102 10.6382 10.2102 11.2714 10.6007 11.6619L10.8786 11.9398L9.74235 13.076C9.44946 13.3689 9.44946 13.8438 9.74235 14.1367C10.0352 14.4296 10.5101 14.4296 10.803 14.1367L11.9393 13.0004L12.2169 13.2781C12.6075 13.6686 13.2406 13.6686 13.6312 13.2781L15.424 11.4853L16.1818 12.2432L15.5256 12.8994C15.1351 13.2899 15.1351 13.9231 15.5256 14.3136L16.3842 15.1722C16.7747 15.5628 17.4079 15.5628 17.7984 15.1722L20.1723 12.7984C20.5628 12.4079 20.5628 11.7747 20.1723 11.3842L19.3136 10.5256C18.9231 10.135 18.29 10.135 17.8994 10.5256L17.2425 11.1825L16.4846 10.4246L18.2778 8.63144C18.6684 8.24092 18.6684 7.60775 18.2778 7.21723L16.6616 5.601C16.2711 5.21047 15.6379 5.21047 15.2474 5.601L13.4542 7.3942L12.6967 6.63671L13.3536 5.97979C13.7442 5.58926 13.7442 4.9561 13.3536 4.56557L12.495 3.70696Z" fill="#D3F261"/>
</g>
</svg>
