<svg width="24" height="24" viewBox="0 0 24 24"  fill="none"  xmlns="http://www.w3.org/2000/svg">
<g opacity="0.8">
<path d="M12.0002 14V20.3421" stroke="white" stroke-width="1.5" stroke-linecap="round" stroke-linejoin="round"/>
<path d="M14.6316 16.1315L12 12.9736L9.36841 16.1315" stroke="white" stroke-width="1.5" stroke-linecap="round" stroke-linejoin="round"/>
<path d="M7 17.1553C6.83583 17.1744 6.669 17.1842 6.5 17.1842C4.01472 17.1842 2 15.0635 2 12.4474C2 9.83128 4.01472 7.71053 6.5 7.71053C6.56895 7.71053 6.63754 7.71216 6.70573 7.71539C7.35713 5.2829 9.48077 3.5 12 3.5C14.5192 3.5 16.6429 5.2829 17.2943 7.71539C17.3625 7.71216 17.4311 7.71053 17.5 7.71053C19.9853 7.71053 22 9.83128 22 12.4474C22 15.0635 19.9853 17.1842 17.5 17.1842C17.331 17.1842 17.1642 17.1744 17 17.1553" stroke="white" stroke-width="1.5" stroke-linecap="round" stroke-linejoin="round"/>
</g>
</svg>
