<svg width="24" height="24" viewBox="0 0 24 24"  fill="none"  xmlns="http://www.w3.org/2000/svg">
<path d="M5.31073 18.7044C5.14745 19.085 5.32368 19.526 5.70436 19.6893C6.08503 19.8526 6.526 19.6763 6.68927 19.2956L5.31073 18.7044ZM17.3107 19.2956C17.474 19.6763 17.915 19.8526 18.2956 19.6893C18.6763 19.526 18.8526 19.085 18.6893 18.7044L17.3107 19.2956ZM15.5039 9.33333C15.5039 11.3255 13.9221 12.9167 12 12.9167V14.4167C14.7766 14.4167 17.0039 12.1277 17.0039 9.33333H15.5039ZM12 12.9167C10.0778 12.9167 8.49599 11.3255 8.49599 9.33333H6.99599C6.99599 12.1277 9.22333 14.4167 12 14.4167V12.9167ZM8.49599 9.33333C8.49599 7.34118 10.0778 5.75 12 5.75V4.25C9.22333 4.25 6.99599 6.53902 6.99599 9.33333H8.49599ZM12 5.75C13.9221 5.75 15.5039 7.34118 15.5039 9.33333H17.0039C17.0039 6.53902 14.7766 4.25 12 4.25V5.75ZM6.68927 19.2956C7.58768 17.201 9.633 15.75 12 15.75V14.25C8.99962 14.25 6.43212 16.0899 5.31073 18.7044L6.68927 19.2956ZM12 15.75C14.367 15.75 16.4123 17.201 17.3107 19.2956L18.6893 18.7044C17.5679 16.0899 15.0004 14.25 12 14.25V15.75Z" fill="#3CE5D3"/>
</svg>
