<svg width="24" height="24" viewBox="0 0 24 24" fill="none" xmlns="http://www.w3.org/2000/svg">
<path fill-rule="evenodd" clip-rule="evenodd" d="M3.5 5V7H20.5V5H3.5ZM3 3.5C2.44772 3.5 2 3.94772 2 4.5V7.5C2 8.05228 2.44772 8.5 3 8.5H21C21.5523 8.5 22 8.05228 22 7.5V4.5C22 3.94772 21.5523 3.5 21 3.5H3ZM3.5 11V13H20.5V11H3.5ZM3 9.5C2.44772 9.5 2 9.94772 2 10.5V13.5C2 14.0523 2.44772 14.5 3 14.5H21C21.5523 14.5 22 14.0523 22 13.5V10.5C22 9.94772 21.5523 9.5 21 9.5H3ZM3.5 19V17H20.5V19H3.5ZM2 16.5C2 15.9477 2.44772 15.5 3 15.5H21C21.5523 15.5 22 15.9477 22 16.5V19.5C22 20.0523 21.5523 20.5 21 20.5H3C2.44772 20.5 2 20.0523 2 19.5V16.5Z" fill="white" fill-opacity="0.8"/>
</svg>
