<svg width="24" height="24" viewBox="0 0 24 24" fill="none" xmlns="http://www.w3.org/2000/svg">
<path d="M7 16.28H5C4.45 16.28 4 15.83 4 15.28V9.28C4 8.73 4.45 8.28 5 8.28H7V16.28Z" fill="white"/>
<path d="M17.77 7.16C19.14 8.43 20 10.26 20 12.28C20 14.24 19.19 16.01 17.9 17.28" stroke="white" stroke-width="1.5" stroke-miterlimit="10" stroke-linecap="round" stroke-linejoin="round"/>
<path d="M15.78 9.01001C16.54 9.88001 17 11.03 17 12.28C17 13.46 16.59 14.54 15.91 15.4" stroke="white" stroke-width="1.5" stroke-miterlimit="10" stroke-linecap="round" stroke-linejoin="round"/>
<path d="M12.5 19.42L7 16.28V8.28L12.5 5.13C13.17 4.75 14 5.23 14 6V18.55C14 19.32 13.17 19.8 12.5 19.42Z" fill="white"/>
</svg>
