<svg width="24" height="24" viewBox="0 0 24 24" fill="none" xmlns="http://www.w3.org/2000/svg">
<path d="M7 16.28H5C4.45 16.28 4 15.83 4 15.28V9.28003C4 8.73003 4.45 8.28003 5 8.28003H7V16.28Z" fill="white"/>
<path d="M17.77 7.15991C19.14 8.42991 20 10.2599 20 12.2799C20 14.2399 19.19 16.0099 17.9 17.2799" stroke="white" stroke-width="1.5" stroke-miterlimit="10" stroke-linecap="round" stroke-linejoin="round"/>
<path d="M15.78 9.01001C16.54 9.88001 17 11.03 17 12.28C17 13.46 16.59 14.54 15.91 15.4" stroke="white" stroke-width="1.5" stroke-miterlimit="10" stroke-linecap="round" stroke-linejoin="round"/>
<path d="M12.5 19.4199L7 16.2799V8.27994L12.5 5.12994C13.17 4.74994 14 5.22994 14 5.99994V18.5499C14 19.3199 13.17 19.7999 12.5 19.4199Z" fill="white"/>
</svg>
