<svg width="24" height="24" viewBox="0 0 24 24" fill="none" xmlns="http://www.w3.org/2000/svg">
<path fill-rule="evenodd" clip-rule="evenodd" d="M3 3.25C2.58579 3.25 2.25 3.58579 2.25 4V18C2.25 18.4142 2.58579 18.75 3 18.75H10C10.4142 18.75 10.75 18.4142 10.75 18C10.75 17.5858 10.4142 17.25 10 17.25H3.75V4.75H20.25V10C20.25 10.4142 20.5858 10.75 21 10.75C21.4142 10.75 21.75 10.4142 21.75 10V4C21.75 3.58579 21.4142 3.25 21 3.25H3ZM16.75 13C16.75 12.5858 16.4142 12.25 16 12.25C15.5858 12.25 15.25 12.5858 15.25 13V16C15.25 16.4142 15.5858 16.75 16 16.75H18C18.4142 16.75 18.75 16.4142 18.75 16C18.75 15.5858 18.4142 15.25 18 15.25H16.75V13ZM3.25 21C3.25 20.5858 3.58579 20.25 4 20.25H13C13.4142 20.25 13.75 20.5858 13.75 21C13.75 21.4142 13.4142 21.75 13 21.75H4C3.58579 21.75 3.25 21.4142 3.25 21ZM20.5 15.5C20.5 17.7091 18.7091 19.5 16.5 19.5C14.2909 19.5 12.5 17.7091 12.5 15.5C12.5 13.2909 14.2909 11.5 16.5 11.5C18.7091 11.5 20.5 13.2909 20.5 15.5ZM22 15.5C22 18.5376 19.5376 21 16.5 21C13.4624 21 11 18.5376 11 15.5C11 12.4624 13.4624 10 16.5 10C19.5376 10 22 12.4624 22 15.5ZM5 8C5 7.44772 5.44772 7 6 7H13C13.5523 7 14 7.44772 14 8C14 8.55228 13.5523 9 13 9H6C5.44772 9 5 8.55228 5 8ZM6 11C5.44772 11 5 11.4477 5 12C5 12.5523 5.44772 13 6 13H9C9.55228 13 10 12.5523 10 12C10 11.4477 9.55228 11 9 11H6Z" fill="#3CE5D3"/>
</svg>
