<?xml version="1.0" standalone="no"?><!DOCTYPE svg PUBLIC "-//W3C//DTD SVG 1.1//EN" "http://www.w3.org/Graphics/SVG/1.1/DTD/svg11.dtd"><svg t="1678096642786" class="icon" viewBox="0 0 1024 1024" version="1.1" xmlns="http://www.w3.org/2000/svg" p-id="15639" width="128" height="128" xmlns:xlink="http://www.w3.org/1999/xlink"><path d="M896 832H128c-17.706667 0-32-14.293333-32-32 0-102.933333 39.146667-146.88 96-191.146667V432c0-118.613333 72.746667-223.68 182.826667-266.88C393.173333 105.493333 448.106667 64 512 64s118.826667 41.493333 137.173333 101.12C759.253333 208.32 832 313.386667 832 432v176.853333c56.853333 44.266667 96 88.213333 96 191.146667 0 17.706667-14.293333 32-32 32zM331.946667 896c1.493333 4.16 2.24 8.746667 4.053333 12.8 30.613333 69.973333 99.626667 115.2 176 115.2s145.386667-45.226667 176-115.093333c1.813333-4.053333 2.56-8.64 4.053333-12.906667H331.946667z" p-id="15640"></path></svg>