<svg width="56" height="56" viewBox="0 0 56 56" fill="none" xmlns="http://www.w3.org/2000/svg">
<mask id="path-1-inside-1_1_850" fill="white">
<path fill-rule="evenodd" clip-rule="evenodd" d="M47.7811 21.4057C48.7397 21.6251 49.6662 22.5984 49.8385 23.5652C49.8385 23.5652 49.9946 24.4323 50 26.627C50 28.8324 49.8439 29.6995 49.8439 29.6995C49.6716 30.669 48.7452 31.6409 47.7865 31.8591L47.1079 32.0152V32.018C45.4115 32.5268 43.8981 33.6552 42.9367 35.3167C41.9916 36.9646 41.7708 38.8389 42.1748 40.5569L42.3848 41.2516C42.6702 42.1941 42.2986 43.4812 41.5499 44.1167C41.5499 44.1167 40.8768 44.6876 38.9756 45.789C37.0637 46.8878 36.2396 47.1894 36.2396 47.1894C35.3134 47.5232 34.0154 47.2028 33.3477 46.4864L32.875 45.9721H32.8738C31.5853 44.7523 29.8484 44.0011 27.9391 44.0011C26.0285 44.0011 24.2945 44.7469 23.0113 45.9721L22.5334 46.4864C21.8655 47.2028 20.5649 47.5232 19.6399 47.1894C19.6399 47.1894 18.8159 46.893 16.9107 45.789C15.0055 44.6876 14.3336 44.1167 14.3336 44.1167C13.5823 43.4812 13.2067 42.1887 13.4975 41.2516L13.7035 40.5785C14.1169 38.855 13.8987 36.9727 12.9442 35.3167C11.9855 33.6579 10.4695 32.5242 8.77038 32.018L8.09164 31.8671C7.13713 31.6437 6.2107 30.6716 6.03698 29.7022C6.03698 29.7022 5.88086 28.8378 5.88086 26.6336C5.88086 24.4296 6.03698 23.5611 6.03698 23.5611C6.20933 22.5958 7.13717 21.6211 8.09164 21.4029L8.78643 21.244C10.479 20.7406 11.9909 19.6109 12.9442 17.9589C13.8947 16.3028 14.1155 14.4245 13.7061 12.7025L13.4975 12.0211C13.2067 11.0787 13.5823 9.79153 14.331 9.1559C14.331 9.1559 15.0029 8.58779 16.9038 7.4864C18.8118 6.38506 19.6385 6.08626 19.6385 6.08626C20.5621 5.75221 21.8668 6.0714 22.532 6.79166L23.0154 7.3141C24.2985 8.53394 26.0313 9.28121 27.9391 9.28121C29.8376 9.28121 31.565 8.53933 32.8468 7.32754L33.3478 6.78905C34.0155 6.06742 35.3189 5.74961 36.2425 6.08347C36.2425 6.08347 37.0691 6.38387 38.9729 7.48384C40.8769 8.58518 41.5528 9.15595 41.5528 9.15595C42.2987 9.79158 42.673 11.0841 42.3848 12.0226L42.1748 12.6971C41.76 14.4205 41.9782 16.3028 42.9367 17.9601C43.8873 19.6055 45.3845 20.7324 47.0703 21.2414L47.7811 21.4057ZM28.0032 35.4471C32.6576 35.4471 36.4307 31.674 36.4307 27.0196C36.4307 22.3652 32.6576 18.592 28.0032 18.592C23.3488 18.592 19.5756 22.3652 19.5756 27.0196C19.5756 31.674 23.3488 35.4471 28.0032 35.4471Z"/>
</mask>
<path fill-rule="evenodd" clip-rule="evenodd" d="M47.7811 21.4057C48.7397 21.6251 49.6662 22.5984 49.8385 23.5652C49.8385 23.5652 49.9946 24.4323 50 26.627C50 28.8324 49.8439 29.6995 49.8439 29.6995C49.6716 30.669 48.7452 31.6409 47.7865 31.8591L47.1079 32.0152V32.018C45.4115 32.5268 43.8981 33.6552 42.9367 35.3167C41.9916 36.9646 41.7708 38.8389 42.1748 40.5569L42.3848 41.2516C42.6702 42.1941 42.2986 43.4812 41.5499 44.1167C41.5499 44.1167 40.8768 44.6876 38.9756 45.789C37.0637 46.8878 36.2396 47.1894 36.2396 47.1894C35.3134 47.5232 34.0154 47.2028 33.3477 46.4864L32.875 45.9721H32.8738C31.5853 44.7523 29.8484 44.0011 27.9391 44.0011C26.0285 44.0011 24.2945 44.7469 23.0113 45.9721L22.5334 46.4864C21.8655 47.2028 20.5649 47.5232 19.6399 47.1894C19.6399 47.1894 18.8159 46.893 16.9107 45.789C15.0055 44.6876 14.3336 44.1167 14.3336 44.1167C13.5823 43.4812 13.2067 42.1887 13.4975 41.2516L13.7035 40.5785C14.1169 38.855 13.8987 36.9727 12.9442 35.3167C11.9855 33.6579 10.4695 32.5242 8.77038 32.018L8.09164 31.8671C7.13713 31.6437 6.2107 30.6716 6.03698 29.7022C6.03698 29.7022 5.88086 28.8378 5.88086 26.6336C5.88086 24.4296 6.03698 23.5611 6.03698 23.5611C6.20933 22.5958 7.13717 21.6211 8.09164 21.4029L8.78643 21.244C10.479 20.7406 11.9909 19.6109 12.9442 17.9589C13.8947 16.3028 14.1155 14.4245 13.7061 12.7025L13.4975 12.0211C13.2067 11.0787 13.5823 9.79153 14.331 9.1559C14.331 9.1559 15.0029 8.58779 16.9038 7.4864C18.8118 6.38506 19.6385 6.08626 19.6385 6.08626C20.5621 5.75221 21.8668 6.0714 22.532 6.79166L23.0154 7.3141C24.2985 8.53394 26.0313 9.28121 27.9391 9.28121C29.8376 9.28121 31.565 8.53933 32.8468 7.32754L33.3478 6.78905C34.0155 6.06742 35.3189 5.74961 36.2425 6.08347C36.2425 6.08347 37.0691 6.38387 38.9729 7.48384C40.8769 8.58518 41.5528 9.15595 41.5528 9.15595C42.2987 9.79158 42.673 11.0841 42.3848 12.0226L42.1748 12.6971C41.76 14.4205 41.9782 16.3028 42.9367 17.9601C43.8873 19.6055 45.3845 20.7324 47.0703 21.2414L47.7811 21.4057ZM28.0032 35.4471C32.6576 35.4471 36.4307 31.674 36.4307 27.0196C36.4307 22.3652 32.6576 18.592 28.0032 18.592C23.3488 18.592 19.5756 22.3652 19.5756 27.0196C19.5756 31.674 23.3488 35.4471 28.0032 35.4471Z" fill="url(#paint0_linear_1_850)"/>
<path d="M49.8385 23.5652L48.854 23.7407L48.8543 23.7424L49.8385 23.5652ZM47.7811 21.4057L47.5559 22.38L47.5579 22.3805L47.7811 21.4057ZM50 26.627H51L51 26.6245L50 26.627ZM49.8439 29.6995L48.8597 29.5223L48.8593 29.5245L49.8439 29.6995ZM47.7865 31.8591L47.5645 30.8841L47.5624 30.8846L47.7865 31.8591ZM47.1079 32.0152L46.8838 31.0406L46.1079 31.2191V32.0152H47.1079ZM47.1079 32.018L47.3951 32.9759L48.1079 32.7621V32.018H47.1079ZM42.9367 35.3167L42.0711 34.8158L42.0692 34.8192L42.9367 35.3167ZM42.1748 40.5569L41.2013 40.7858L41.2085 40.8162L41.2176 40.8462L42.1748 40.5569ZM42.3848 41.2516L41.4276 41.541L41.4277 41.5415L42.3848 41.2516ZM41.5499 44.1167L42.1967 44.8793L42.197 44.8791L41.5499 44.1167ZM38.9756 45.789L39.4739 46.656L39.4768 46.6543L38.9756 45.789ZM36.2396 47.1894L36.5787 48.1301L36.5833 48.1285L36.2396 47.1894ZM33.3477 46.4864L32.6115 47.1631L32.6162 47.1682L33.3477 46.4864ZM32.875 45.9721L33.6112 45.2954L33.3141 44.9721H32.875V45.9721ZM32.8738 45.9721L32.1864 46.6984L32.4756 46.9721H32.8738V45.9721ZM23.0113 45.9721L22.3208 45.2489L22.2992 45.2695L22.2789 45.2914L23.0113 45.9721ZM22.5334 46.4864L23.2648 47.1683L23.2659 47.1672L22.5334 46.4864ZM19.6399 47.1894L19.9794 46.2488L19.9783 46.2484L19.6399 47.1894ZM16.9107 45.789L17.4121 44.9237L17.4112 44.9232L16.9107 45.789ZM14.3336 44.1167L14.9811 43.3546L14.9794 43.3532L14.3336 44.1167ZM13.4975 41.2516L14.4526 41.548L14.4538 41.5443L13.4975 41.2516ZM13.7035 40.5785L14.6598 40.8711L14.6688 40.8417L14.676 40.8117L13.7035 40.5785ZM12.9442 35.3167L13.8106 34.8173L13.81 34.8163L12.9442 35.3167ZM8.77038 32.018L9.05585 31.0596L9.02194 31.0495L8.98741 31.0419L8.77038 32.018ZM8.09164 31.8671L7.86367 32.8409L7.8746 32.8433L8.09164 31.8671ZM6.03698 29.7022L7.0213 29.5258L7.02106 29.5245L6.03698 29.7022ZM6.03698 23.5611L7.02121 23.7381L7.02141 23.7369L6.03698 23.5611ZM8.09164 21.4029L8.3145 22.3777L8.31459 22.3777L8.09164 21.4029ZM8.78643 21.244L9.00938 22.2188L9.0407 22.2116L9.0715 22.2025L8.78643 21.244ZM12.9442 17.9589L13.8104 18.4587L13.8115 18.4566L12.9442 17.9589ZM13.7061 12.7025L14.679 12.4712L14.6717 12.4402L14.6623 12.4097L13.7061 12.7025ZM13.4975 12.0211L14.4537 11.7284L14.4531 11.7263L13.4975 12.0211ZM14.331 9.1559L13.6853 8.39229L13.6838 8.39361L14.331 9.1559ZM16.9038 7.4864L16.4039 6.62033L16.4025 6.62114L16.9038 7.4864ZM19.6385 6.08626L19.9784 7.0267L19.9786 7.02664L19.6385 6.08626ZM22.532 6.79166L21.7973 7.47009L21.798 7.47081L22.532 6.79166ZM23.0154 7.3141L22.2814 7.99325L22.3031 8.01677L22.3264 8.03885L23.0154 7.3141ZM32.8468 7.32754L33.5338 8.05421L33.5571 8.03216L33.579 8.00866L32.8468 7.32754ZM33.3478 6.78905L34.0799 7.47018L34.0817 7.46821L33.3478 6.78905ZM36.2425 6.08347L36.5841 5.14361L36.5825 5.14302L36.2425 6.08347ZM38.9729 7.48384L39.4736 6.61822L39.4732 6.61798L38.9729 7.48384ZM41.5528 9.15595L42.2014 8.39483L42.198 8.39192L41.5528 9.15595ZM42.3848 12.0226L43.3396 12.3198L43.3408 12.3161L42.3848 12.0226ZM42.1748 12.6971L41.22 12.3998L41.2103 12.4312L41.2026 12.4631L42.1748 12.6971ZM42.9367 17.9601L43.8026 17.4599L43.8024 17.4594L42.9367 17.9601ZM47.0703 21.2414L46.7812 22.1987L46.8129 22.2082L46.8451 22.2157L47.0703 21.2414ZM50.823 23.3896C50.6951 22.6721 50.3052 22.0158 49.8287 21.5155C49.3522 21.0152 48.7154 20.5937 48.0042 20.4309L47.5579 22.3805C47.8054 22.4371 48.1111 22.612 48.3805 22.8949C48.65 23.1778 48.8096 23.4915 48.854 23.7407L50.823 23.3896ZM51 26.6245C50.9972 25.504 50.956 24.7123 50.914 24.1925C50.893 23.9325 50.8717 23.7402 50.855 23.6086C50.8466 23.5428 50.8393 23.4921 50.8337 23.4556C50.831 23.4374 50.8286 23.4227 50.8267 23.4114C50.8258 23.4058 50.825 23.4011 50.8243 23.3972C50.824 23.3952 50.8237 23.3935 50.8234 23.3919C50.8232 23.3912 50.8231 23.3904 50.823 23.3898C50.8229 23.3895 50.8229 23.3891 50.8228 23.3888C50.8228 23.3887 50.8228 23.3885 50.8228 23.3884C50.8227 23.3882 50.8227 23.388 49.8385 23.5652C48.8543 23.7424 48.8543 23.7422 48.8543 23.742C48.8542 23.7419 48.8542 23.7417 48.8542 23.7416C48.8541 23.7413 48.8541 23.7411 48.8541 23.7408C48.854 23.7404 48.8539 23.74 48.8538 23.7397C48.8537 23.739 48.8536 23.7385 48.8536 23.7383C48.8535 23.7378 48.8536 23.7381 48.8538 23.7394C48.8542 23.742 48.8552 23.748 48.8567 23.7578C48.8597 23.7773 48.8647 23.8115 48.871 23.8613C48.8837 23.9608 48.9018 24.1225 48.9205 24.3536C48.9579 24.816 48.9974 25.5553 49 26.6294L51 26.6245ZM49.8439 29.6995C50.828 29.8767 50.8281 29.8764 50.8281 29.8762C50.8281 29.8761 50.8282 29.8759 50.8282 29.8758C50.8282 29.8755 50.8283 29.8751 50.8284 29.8748C50.8285 29.8741 50.8286 29.8734 50.8288 29.8726C50.829 29.8711 50.8293 29.8693 50.8297 29.8673C50.8304 29.8634 50.8312 29.8586 50.8321 29.8529C50.834 29.8416 50.8364 29.8268 50.8392 29.8085C50.8447 29.7719 50.852 29.721 50.8604 29.655C50.877 29.5229 50.8981 29.3301 50.9188 29.0692C50.9601 28.5477 51 27.7531 51 26.627H49C49 27.7063 48.9618 28.4479 48.925 28.9112C48.9067 29.1428 48.8887 29.3046 48.8762 29.4041C48.8699 29.4538 48.8649 29.4879 48.862 29.5073C48.8605 29.517 48.8595 29.523 48.8591 29.5254C48.8589 29.5267 48.8588 29.527 48.8589 29.5265C48.859 29.5262 48.8591 29.5257 48.8592 29.525C48.8593 29.5247 48.8593 29.5243 48.8594 29.5238C48.8594 29.5236 48.8595 29.5233 48.8595 29.5231C48.8596 29.5229 48.8596 29.5227 48.8596 29.5227C48.8596 29.5225 48.8597 29.5223 49.8439 29.6995ZM48.0085 32.8342C48.7199 32.6722 49.3571 32.2514 49.8341 31.7508C50.3111 31.2502 50.7007 30.5933 50.8284 29.8744L48.8593 29.5245C48.8147 29.7752 48.6551 30.0889 48.3861 30.3712C48.1171 30.6535 47.8118 30.8278 47.5645 30.8841L48.0085 32.8342ZM47.332 32.9898L48.0106 32.8337L47.5624 30.8846L46.8838 31.0406L47.332 32.9898ZM48.1079 32.018V32.0152H46.1079V32.018H48.1079ZM43.8022 35.8175C44.631 34.3852 45.9328 33.4144 47.3951 32.9759L46.8206 31.0602C44.8902 31.6391 43.1652 32.9252 42.0711 34.8158L43.8022 35.8175ZM43.1482 40.328C42.7998 38.846 42.9906 37.2328 43.8041 35.8142L42.0692 34.8192C40.9926 36.6964 40.7418 38.8317 41.2013 40.7858L43.1482 40.328ZM43.342 40.9623L43.132 40.2675L41.2176 40.8462L41.4276 41.541L43.342 40.9623ZM42.197 44.8791C42.7529 44.4073 43.1229 43.7409 43.3154 43.0783C43.5081 42.4154 43.5522 41.6562 43.3419 40.9618L41.4277 41.5415C41.5028 41.7896 41.5039 42.1452 41.3949 42.5203C41.2858 42.8957 41.0956 43.1906 40.9028 43.3543L42.197 44.8791ZM39.4768 46.6543C40.4478 46.0918 41.114 45.6596 41.544 45.3626C41.7591 45.2141 41.9153 45.0992 42.0212 45.0185C42.0741 44.9781 42.1145 44.9463 42.1434 44.9231C42.1578 44.9115 42.1694 44.902 42.1783 44.8947C42.1827 44.8911 42.1864 44.888 42.1895 44.8854C42.191 44.8841 42.1924 44.883 42.1936 44.882C42.1942 44.8815 42.1948 44.881 42.1953 44.8806C42.1956 44.8803 42.1958 44.8801 42.196 44.8799C42.1962 44.8798 42.1963 44.8797 42.1964 44.8796C42.1966 44.8795 42.1967 44.8793 41.5499 44.1167C40.903 43.3541 40.9032 43.354 40.9034 43.3538C40.9034 43.3538 40.9036 43.3536 40.9037 43.3536C40.9039 43.3534 40.9041 43.3532 40.9042 43.3531C40.9046 43.3528 40.9049 43.3525 40.9052 43.3523C40.9057 43.3518 40.9061 43.3515 40.9063 43.3513C40.9067 43.351 40.9064 43.3512 40.9055 43.352C40.9035 43.3536 40.8988 43.3575 40.8911 43.3637C40.8758 43.376 40.8487 43.3974 40.8089 43.4278C40.7291 43.4885 40.5982 43.5852 40.4074 43.717C40.0255 43.9808 39.4046 44.3848 38.4743 44.9237L39.4768 46.6543ZM36.2396 47.1894C36.5833 48.1285 36.5835 48.1284 36.5837 48.1283C36.5838 48.1283 36.584 48.1282 36.5841 48.1282C36.5844 48.128 36.5847 48.1279 36.585 48.1278C36.5857 48.1276 36.5863 48.1273 36.587 48.1271C36.5885 48.1265 36.5901 48.1259 36.592 48.1253C36.5956 48.1239 36.6001 48.1222 36.6054 48.1202C36.6159 48.1162 36.6296 48.1109 36.6467 48.1041C36.6807 48.0906 36.7279 48.0715 36.7888 48.0457C36.9104 47.9941 37.0868 47.9159 37.322 47.8034C37.7922 47.5786 38.4985 47.2165 39.4739 46.656L38.4773 44.9219C37.5407 45.4602 36.8791 45.7983 36.4593 45.999C36.2495 46.0993 36.1003 46.1652 36.0077 46.2045C35.9614 46.2241 35.9293 46.2371 35.9109 46.2444C35.9016 46.2481 35.8958 46.2503 35.8933 46.2512C35.8921 46.2517 35.8917 46.2519 35.8921 46.2517C35.8924 46.2516 35.8928 46.2514 35.8934 46.2512C35.8937 46.2511 35.8941 46.251 35.8945 46.2508C35.8947 46.2507 35.8949 46.2506 35.8952 46.2506C35.8953 46.2505 35.8955 46.2505 35.8955 46.2504C35.8957 46.2504 35.8959 46.2503 36.2396 47.1894ZM32.6162 47.1682C33.1104 47.6985 33.7895 48.0395 34.4594 48.2032C35.1294 48.3668 35.8917 48.3778 36.5787 48.1301L35.9005 46.2486C35.6613 46.3348 35.3115 46.3525 34.934 46.2603C34.5565 46.1681 34.2527 45.9907 34.0792 45.8046L32.6162 47.1682ZM32.1388 46.6489L32.6115 47.1631L34.0839 45.8097L33.6112 45.2954L32.1388 46.6489ZM32.8738 46.9721H32.875V44.9721H32.8738V46.9721ZM27.9391 45.0011C29.5807 45.0011 31.0747 45.646 32.1864 46.6984L33.5613 45.2459C32.0959 43.8587 30.1161 43.0011 27.9391 43.0011V45.0011ZM23.7019 46.6954C24.8054 45.6417 26.2944 45.0011 27.9391 45.0011V43.0011C25.7626 43.0011 23.7836 43.8522 22.3208 45.2489L23.7019 46.6954ZM23.2659 47.1672L23.7438 46.6529L22.2789 45.2914L21.8009 45.8056L23.2659 47.1672ZM19.3004 48.13C19.9873 48.3779 20.75 48.3667 21.4201 48.2032C22.0902 48.0397 22.7702 47.6988 23.2648 47.1683L21.802 45.8045C21.6287 45.9904 21.3244 46.1679 20.946 46.2602C20.5676 46.3526 20.2175 46.3347 19.9794 46.2488L19.3004 48.13ZM16.4093 46.6542C17.3822 47.218 18.0881 47.5808 18.5588 47.8056C18.7942 47.918 18.9711 47.996 19.0935 48.0475C19.1547 48.0733 19.2023 48.0924 19.2368 48.1059C19.254 48.1126 19.268 48.1179 19.2787 48.122C19.2841 48.124 19.2887 48.1257 19.2925 48.1271C19.2944 48.1278 19.2961 48.1284 19.2976 48.1289C19.2983 48.1292 19.299 48.1295 19.2996 48.1297C19.3 48.1298 19.3003 48.1299 19.3006 48.13C19.3007 48.1301 19.301 48.1302 19.301 48.1302C19.3012 48.1303 19.3015 48.1304 19.6399 47.1894C19.9783 46.2484 19.9785 46.2485 19.9787 46.2485C19.9788 46.2485 19.979 46.2486 19.9791 46.2487C19.9794 46.2488 19.9796 46.2488 19.9798 46.2489C19.9803 46.2491 19.9807 46.2492 19.981 46.2494C19.9817 46.2496 19.9822 46.2498 19.9825 46.2499C19.983 46.2501 19.9827 46.25 19.9816 46.2496C19.9794 46.2487 19.9738 46.2466 19.9648 46.2431C19.9467 46.236 19.9151 46.2234 19.8692 46.2041C19.7775 46.1655 19.6294 46.1005 19.4206 46.0008C19.0031 45.8014 18.3443 45.464 17.4121 44.9237L16.4093 46.6542ZM14.3336 44.1167C13.6861 44.8788 13.6863 44.8789 13.6864 44.8791C13.6865 44.8791 13.6867 44.8793 13.6868 44.8794C13.687 44.8796 13.6873 44.8798 13.6876 44.88C13.6881 44.8805 13.6887 44.8809 13.6893 44.8815C13.6905 44.8825 13.6919 44.8836 13.6934 44.8849C13.6965 44.8875 13.7002 44.8907 13.7047 44.8943C13.7136 44.9016 13.7252 44.9111 13.7396 44.9228C13.7686 44.9461 13.809 44.9779 13.862 45.0183C13.968 45.0991 14.1243 45.2141 14.3396 45.3628C14.77 45.6599 15.4371 46.0922 16.4102 46.6547L17.4112 44.9232C16.4791 44.3844 15.8577 43.9805 15.4759 43.7169C15.285 43.5851 15.1543 43.4886 15.0747 43.4279C15.0349 43.3976 15.008 43.3763 14.9927 43.364C14.9851 43.3579 14.9804 43.354 14.9785 43.3525C14.9776 43.3517 14.9773 43.3515 14.9778 43.3518C14.978 43.352 14.9784 43.3523 14.9789 43.3528C14.9792 43.353 14.9795 43.3533 14.9799 43.3536C14.9801 43.3538 14.9803 43.3539 14.9805 43.3541C14.9806 43.3542 14.9807 43.3543 14.9808 43.3544C14.9809 43.3545 14.9811 43.3546 14.3336 44.1167ZM12.5425 40.9553C12.3265 41.6511 12.3714 42.4136 12.5647 43.0771C12.7581 43.7406 13.1302 44.4085 13.6878 44.8802L14.9794 43.3532C14.7858 43.1894 14.5944 42.8933 14.4849 42.5175C14.3753 42.1415 14.3778 41.7892 14.4526 41.548L12.5425 40.9553ZM12.7473 40.2859L12.5413 40.959L14.4538 41.5443L14.6598 40.8711L12.7473 40.2859ZM12.0778 35.816C12.8991 37.2409 13.0875 38.8597 12.7311 40.3452L14.676 40.8117C15.1464 38.8504 14.8984 36.7045 13.8106 34.8173L12.0778 35.816ZM8.48491 32.9764C9.948 33.4122 11.2521 34.3872 12.0784 35.8171L13.81 34.8163C12.719 32.9285 10.9911 31.6361 9.05585 31.0596L8.48491 32.9764ZM7.8746 32.8433L8.55334 32.9942L8.98741 31.0419L8.30867 30.891L7.8746 32.8433ZM5.05266 29.8786C5.18135 30.5967 5.57103 31.2528 6.04662 31.7532C6.52214 32.2536 7.15652 32.6752 7.86369 32.8408L8.31959 30.8935C8.07225 30.8355 7.76616 30.6594 7.49641 30.3755C7.22673 30.0917 7.06634 29.7771 7.0213 29.5258L5.05266 29.8786ZM4.88086 26.6336C4.88086 27.7591 4.92071 28.5528 4.96206 29.0736C4.98274 29.3341 5.00381 29.5266 5.02052 29.6584C5.02888 29.7244 5.03615 29.7752 5.04174 29.8118C5.04454 29.8301 5.04692 29.8448 5.0488 29.8562C5.04974 29.8618 5.05056 29.8666 5.05125 29.8706C5.05159 29.8725 5.0519 29.8743 5.05218 29.8759C5.05232 29.8767 5.05245 29.8774 5.05257 29.8781C5.05263 29.8784 5.05268 29.8787 5.05274 29.879C5.05277 29.8792 5.05281 29.8794 5.05282 29.8795C5.05286 29.8797 5.0529 29.8799 6.03698 29.7022C7.02106 29.5245 7.0211 29.5247 7.02114 29.5249C7.02115 29.525 7.02118 29.5252 7.02121 29.5253C7.02125 29.5255 7.0213 29.5258 7.02134 29.526C7.02142 29.5265 7.0215 29.5269 7.02156 29.5273C7.02168 29.528 7.02177 29.5285 7.02182 29.5287C7.02191 29.5293 7.02186 29.529 7.02166 29.5278C7.02125 29.5253 7.02028 29.5194 7.0188 29.5097C7.01586 29.4904 7.01093 29.4565 7.00465 29.407C6.99209 29.3078 6.97414 29.1465 6.95578 28.9153C6.91907 28.4529 6.88086 27.7123 6.88086 26.6336H4.88086ZM6.03698 23.5611C5.05276 23.3842 5.05272 23.3844 5.05268 23.3846C5.05267 23.3847 5.05263 23.3849 5.0526 23.3851C5.05254 23.3854 5.05249 23.3857 5.05243 23.3861C5.05231 23.3867 5.05218 23.3875 5.05204 23.3882C5.05177 23.3898 5.05146 23.3915 5.05112 23.3935C5.05044 23.3975 5.04962 23.4023 5.04869 23.4079C5.04681 23.4192 5.04444 23.434 5.04166 23.4523C5.03608 23.4889 5.02882 23.5399 5.02047 23.6059C5.00378 23.7381 4.98272 23.931 4.96204 24.1919C4.92071 24.7136 4.88086 25.5082 4.88086 26.6336H6.88086C6.88086 25.555 6.91907 24.8134 6.9558 24.3498C6.97415 24.1181 6.99212 23.9562 7.0047 23.8566C7.01099 23.8068 7.01593 23.7727 7.01889 23.7532C7.02037 23.7435 7.02136 23.7374 7.02177 23.7349C7.02197 23.7337 7.02204 23.7333 7.02195 23.7339C7.0219 23.7341 7.02182 23.7346 7.02169 23.7353C7.02163 23.7357 7.02156 23.7361 7.02148 23.7365C7.02144 23.7368 7.0214 23.737 7.02135 23.7373C7.02133 23.7374 7.02129 23.7376 7.02128 23.7376C7.02124 23.7379 7.0212 23.7381 6.03698 23.5611ZM7.86878 20.428C7.15861 20.5904 6.52244 21.0126 6.04673 21.5123C5.57095 22.0121 5.18058 22.6683 5.05255 23.3854L7.02141 23.7369C7.06573 23.4887 7.22546 23.1748 7.4953 22.8913C7.76522 22.6078 8.0702 22.4336 8.3145 22.3777L7.86878 20.428ZM8.56347 20.2691L7.86868 20.4281L8.31459 22.3777L9.00938 22.2188L8.56347 20.2691ZM12.0781 17.4591C11.2574 18.8813 9.95791 19.8523 8.50135 20.2855L9.0715 22.2025C11 21.6289 12.7244 20.3406 13.8104 18.4587L12.0781 17.4591ZM12.7333 12.9338C13.0861 14.4179 12.8958 16.0343 12.0769 17.4611L13.8115 18.4566C14.8936 16.5713 15.145 14.431 14.679 12.4712L12.7333 12.9338ZM12.5414 12.3139L12.75 12.9952L14.6623 12.4097L14.4537 11.7284L12.5414 12.3139ZM13.6838 8.39361C13.1288 8.86482 12.7575 9.53056 12.5643 10.1939C12.3712 10.8574 12.3269 11.6189 12.542 12.316L14.4531 11.7263C14.3774 11.4809 14.3755 11.1276 14.4846 10.753C14.5937 10.3783 14.7846 10.0826 14.9782 9.9182L13.6838 8.39361ZM16.4025 6.62114C15.4319 7.1835 14.7663 7.61479 14.3368 7.91095C14.1221 8.05906 13.9661 8.17353 13.8605 8.25387C13.8076 8.29404 13.7673 8.3257 13.7385 8.34878C13.7241 8.36032 13.7125 8.36972 13.7037 8.37698C13.6993 8.38061 13.6956 8.3837 13.6925 8.38625C13.691 8.38752 13.6896 8.38867 13.6884 8.38967C13.6878 8.39018 13.6873 8.39065 13.6867 8.39108C13.6865 8.3913 13.6862 8.39151 13.686 8.39171C13.6859 8.39181 13.6857 8.39196 13.6856 8.39201C13.6855 8.39215 13.6853 8.39229 14.331 9.1559C14.9767 9.91952 14.9765 9.91965 14.9763 9.91979C14.9763 9.91983 14.9761 9.91996 14.976 9.92004C14.9758 9.92021 14.9757 9.92037 14.9755 9.92052C14.9751 9.92082 14.9748 9.92108 14.9745 9.9213C14.974 9.92176 14.9736 9.92207 14.9734 9.92223C14.973 9.92257 14.9733 9.92234 14.9743 9.92153C14.9762 9.91993 14.981 9.91605 14.9887 9.9099C15.004 9.89762 15.031 9.87629 15.0709 9.84599C15.1506 9.78538 15.2815 9.68899 15.4723 9.5574C15.854 9.29415 16.4748 8.89069 17.4052 8.35166L16.4025 6.62114ZM19.6385 6.08626C19.2985 5.14581 19.2983 5.14588 19.2981 5.14596C19.298 5.14599 19.2978 5.14606 19.2977 5.14612C19.2974 5.14622 19.2971 5.14633 19.2968 5.14645C19.2961 5.14668 19.2954 5.14693 19.2947 5.1472C19.2932 5.14774 19.2916 5.14835 19.2897 5.14904C19.2859 5.15043 19.2814 5.15212 19.2761 5.15413C19.2654 5.15816 19.2515 5.16348 19.2343 5.17022C19.1999 5.1837 19.1523 5.20285 19.0912 5.22863C18.9688 5.28019 18.7918 5.35833 18.5561 5.47077C18.0848 5.6956 17.378 6.05808 16.4039 6.62033L17.4038 8.35247C18.3377 7.81338 18.9982 7.47579 19.4172 7.27588C19.6267 7.17596 19.7756 7.11056 19.8678 7.07167C19.914 7.05223 19.9459 7.03943 19.9642 7.03227C19.9733 7.02869 19.979 7.02652 19.9814 7.02563C19.9826 7.02519 19.9829 7.02507 19.9824 7.02525C19.9822 7.02534 19.9817 7.02551 19.981 7.02575C19.9807 7.02587 19.9803 7.02601 19.9799 7.02617C19.9797 7.02625 19.9794 7.02634 19.9792 7.02642C19.9791 7.02647 19.9789 7.02654 19.9788 7.02656C19.9786 7.02663 19.9784 7.0267 19.6385 6.08626ZM23.2666 6.11323C22.7723 5.57792 22.09 5.23581 21.4192 5.07211C20.7484 4.90839 19.9847 4.89764 19.2984 5.14587L19.9786 7.02664C20.2158 6.94083 20.5663 6.92265 20.9451 7.01508C21.3238 7.10752 21.6265 7.28513 21.7973 7.47008L23.2666 6.11323ZM23.7494 6.63495L23.266 6.11251L21.798 7.47081L22.2814 7.99325L23.7494 6.63495ZM27.9391 8.28121C26.298 8.28121 24.8091 7.63959 23.7044 6.58935L22.3264 8.03885C23.7879 9.42828 25.7647 10.2812 27.9391 10.2812V8.28121ZM32.1598 6.60087C31.0561 7.64431 29.5718 8.28121 27.9391 8.28121V10.2812C30.1034 10.2812 32.0739 9.43435 33.5338 8.05421L32.1598 6.60087ZM32.6156 6.10792L32.1146 6.64641L33.579 8.00866L34.0799 7.47017L32.6156 6.10792ZM36.5825 5.14302C35.8965 4.89509 35.1334 4.90531 34.4623 5.0689C33.7912 5.23251 33.109 5.57464 32.6138 6.10988L34.0817 7.46821C34.2542 7.28183 34.5576 7.10423 34.936 7.012C35.3144 6.91975 35.6648 6.93798 35.9026 7.02392L36.5825 5.14302ZM39.4732 6.61798C38.5013 6.05645 37.7957 5.69398 37.3252 5.46899C37.0898 5.35647 36.9131 5.27821 36.7909 5.22656C36.7298 5.20073 36.6824 5.18154 36.6481 5.16804C36.631 5.16129 36.6171 5.15596 36.6064 5.15192C36.6011 5.14991 36.5966 5.14822 36.5929 5.14684C36.591 5.14615 36.5894 5.14553 36.5879 5.145C36.5872 5.14473 36.5865 5.14448 36.5858 5.14425C36.5855 5.14413 36.5852 5.14402 36.5849 5.14391C36.5848 5.14386 36.5846 5.14378 36.5845 5.14376C36.5843 5.14368 36.5841 5.14361 36.2425 6.08347C35.901 7.02333 35.9008 7.02326 35.9006 7.02319C35.9005 7.02317 35.9003 7.0231 35.9002 7.02305C35.9 7.02297 35.8998 7.02288 35.8995 7.0228C35.8991 7.02265 35.8987 7.02251 35.8984 7.02239C35.8977 7.02215 35.8973 7.02198 35.8971 7.02189C35.8966 7.02172 35.8969 7.02185 35.8981 7.0223C35.9005 7.02321 35.9063 7.0254 35.9154 7.02901C35.9338 7.03623 35.9658 7.04911 36.012 7.06863C36.1043 7.10768 36.2531 7.17327 36.4624 7.27334C36.8811 7.47354 37.5407 7.81125 38.4726 8.3497L39.4732 6.61798ZM41.5528 9.15595C42.198 8.39192 42.1978 8.39178 42.1977 8.39164C42.1976 8.39159 42.1974 8.39144 42.1973 8.39134C42.1971 8.39114 42.1968 8.39093 42.1966 8.39072C42.196 8.39028 42.1955 8.38981 42.1949 8.38931C42.1937 8.3883 42.1923 8.38716 42.1908 8.38589C42.1877 8.38334 42.184 8.38024 42.1796 8.37661C42.1707 8.36935 42.1592 8.35993 42.1447 8.34836C42.1158 8.32522 42.0753 8.29347 42.0223 8.25319C41.9162 8.17263 41.7596 8.05783 41.5442 7.90939C41.1133 7.61257 40.4458 7.1806 39.4736 6.61822L38.4722 8.34946C39.4039 8.88842 40.0265 9.2925 40.4096 9.55641C40.601 9.68832 40.7325 9.78505 40.8126 9.84593C40.8527 9.87636 40.8799 9.89781 40.8954 9.91018C40.9031 9.91637 40.9079 9.92029 40.9099 9.92193C40.9109 9.92274 40.9112 9.92299 40.9108 9.92267C40.9106 9.92251 40.9103 9.9222 40.9097 9.92175C40.9095 9.92153 40.9092 9.92127 40.9088 9.92097C40.9086 9.92082 40.9084 9.92067 40.9082 9.9205C40.9082 9.92042 40.908 9.92029 40.9079 9.92025C40.9078 9.92011 40.9076 9.91998 41.5528 9.15595ZM43.3408 12.3161C43.5542 11.621 43.5092 10.8598 43.317 10.1971C43.1248 9.53458 42.7555 8.86698 42.2014 8.39484L40.9042 9.91706C41.096 10.0805 41.2868 10.377 41.3962 10.7543C41.5056 11.1314 41.5036 11.4856 41.4289 11.729L43.3408 12.3161ZM43.1296 12.9944L43.3396 12.3198L41.43 11.7253L41.22 12.3998L43.1296 12.9944ZM43.8024 17.4594C42.9778 16.0338 42.7896 14.416 43.147 12.9311L41.2026 12.4631C40.7303 14.425 40.9785 16.5718 42.0711 18.4608L43.8024 17.4594ZM47.3593 20.2841C45.9088 19.8461 44.6219 18.8779 43.8026 17.4599L42.0709 18.4604C43.1528 20.3331 44.8602 21.6186 46.7812 22.1987L47.3593 20.2841ZM48.0063 20.4314L47.2955 20.2671L46.8451 22.2157L47.5559 22.38L48.0063 20.4314ZM35.4307 27.0196C35.4307 31.1217 32.1053 34.4471 28.0032 34.4471V36.4471C33.2099 36.4471 37.4307 32.2263 37.4307 27.0196H35.4307ZM28.0032 19.592C32.1053 19.592 35.4307 22.9174 35.4307 27.0196H37.4307C37.4307 21.8129 33.2099 17.592 28.0032 17.592V19.592ZM20.5756 27.0196C20.5756 22.9174 23.9011 19.592 28.0032 19.592V17.592C22.7965 17.592 18.5756 21.8129 18.5756 27.0196H20.5756ZM28.0032 34.4471C23.9011 34.4471 20.5756 31.1217 20.5756 27.0196H18.5756C18.5756 32.2263 22.7965 36.4471 28.0032 36.4471V34.4471Z" fill="#86AACA" fill-opacity="0.4" mask="url(#path-1-inside-1_1_850)"/>
<circle cx="28" cy="27" r="7" fill="url(#paint1_linear_1_850)"/>
<defs>
<linearGradient id="paint0_linear_1_850" x1="27.9404" y1="5.95068" x2="27.9404" y2="47.3218" gradientUnits="userSpaceOnUse">
<stop stop-color="#206F89"/>
<stop offset="1" stop-color="#5AACC0" stop-opacity="0.2"/>
</linearGradient>
<linearGradient id="paint1_linear_1_850" x1="28" y1="20" x2="28" y2="34" gradientUnits="userSpaceOnUse">
<stop stop-color="#FBB760"/>
<stop offset="1" stop-color="#E98641"/>
</linearGradient>
</defs>
</svg>
