<svg width="56" height="56" viewBox="0 0 56 56" fill="none" xmlns="http://www.w3.org/2000/svg">
<path d="M44.6154 12.8773C40.4615 12.8773 31.7246 8.06512 28.7338 6.20899C28.5138 6.07242 28.2595 6 28 6C27.7405 6 27.4862 6.07242 27.2662 6.20899C24.2754 8.06512 15.5385 12.8773 11.3846 12.8773C11.2028 12.8773 11.0227 12.9129 10.8547 12.982C10.6868 13.0511 10.5341 13.1524 10.4055 13.28C10.277 13.4077 10.175 13.5593 10.1054 13.7261C10.0358 13.8929 10 14.0717 10 14.2522V29.3763C10 39.9769 23.0985 50 28 50C32.9015 50 46 39.9769 46 29.3763V14.2522C46 14.0717 45.9642 13.8929 45.8946 13.7261C45.825 13.5593 45.723 13.4077 45.5945 13.28C45.4659 13.1524 45.3132 13.0511 45.1453 12.982C44.9773 12.9129 44.7972 12.8773 44.6154 12.8773Z" fill="url(#paint0_linear_1_848)"/>
<path d="M28.4702 6.63382L28.7338 6.20899L28.4702 6.63382C29.9802 7.57098 32.9296 9.24786 36.0271 10.6924C37.5761 11.4147 39.1702 12.0827 40.6449 12.5711C42.1105 13.0564 43.4961 13.3773 44.6154 13.3773C44.732 13.3773 44.8475 13.4001 44.9551 13.4444C45.0626 13.4886 45.1602 13.5534 45.2421 13.6348L45.5945 13.28L45.2421 13.6348C45.3241 13.7162 45.389 13.8127 45.4331 13.9186C45.4773 14.0245 45.5 14.1378 45.5 14.2522V29.3763C45.5 34.4812 42.3343 39.516 38.4871 43.3072C36.5715 45.195 34.5083 46.7526 32.6306 47.8351C30.7337 48.9286 29.0904 49.5 28 49.5C26.9096 49.5 25.2663 48.9286 23.3694 47.8351C21.4917 46.7526 19.4285 45.195 17.5129 43.3072C13.6658 39.516 10.5 34.4812 10.5 29.3763V14.2522C10.5 14.1378 10.5227 14.0245 10.5669 13.9186C10.611 13.8127 10.6759 13.7162 10.7579 13.6348C10.8398 13.5534 10.9374 13.4886 11.0449 13.4444C11.1525 13.4001 11.268 13.3773 11.3846 13.3773C12.5039 13.3773 13.8895 13.0564 15.3551 12.5711C16.8298 12.0827 18.4239 11.4147 19.9729 10.6924C23.0704 9.24786 26.0198 7.57098 27.5298 6.63382L27.2662 6.20899L27.5298 6.63382C27.6705 6.54648 27.8335 6.5 28 6.5C28.1665 6.5 28.3295 6.54648 28.4702 6.63382Z" stroke="#FFD29E" stroke-opacity="0.4"/>
<path d="M23.5455 18L21 30.9412H26.0909L24.8182 40L35 25.7647H28.6364L32.4545 18H23.5455Z" fill="url(#paint1_linear_1_848)"/>
<rect x="25" y="4" width="6" height="6" rx="3" fill="#FFAA88"/>
<defs>
<linearGradient id="paint0_linear_1_848" x1="28" y1="6" x2="28" y2="50" gradientUnits="userSpaceOnUse">
<stop stop-color="#FC511B"/>
<stop offset="1" stop-color="#FBB75D" stop-opacity="0.2"/>
</linearGradient>
<linearGradient id="paint1_linear_1_848" x1="28" y1="18" x2="28" y2="40" gradientUnits="userSpaceOnUse">
<stop stop-color="#39F1FD"/>
<stop offset="1" stop-color="#1EE4E4"/>
</linearGradient>
</defs>
</svg>
