<svg width="56" height="56" viewBox="0 0 56 56" fill="none" xmlns="http://www.w3.org/2000/svg">
<path d="M26.3249 8.56787C27.114 7.35816 28.886 7.35816 29.6751 8.56787L51.0973 41.4073C51.9651 42.7376 51.0105 44.5 49.4222 44.5H6.57783C4.98947 44.5 4.03492 42.7376 4.90273 41.4073L26.3249 8.56787Z" fill="url(#paint0_linear_1_849)"/>
<path d="M26.7437 8.84105C27.3355 7.93377 28.6645 7.93377 29.2563 8.84105L50.6785 41.6805C51.3293 42.6782 50.6134 44 49.4222 44H6.57783C5.38656 44 4.67065 42.6782 5.32151 41.6805L26.7437 8.84105Z" stroke="#E6C1FF" stroke-opacity="0.4"/>
<rect x="26" y="17" width="4" height="16" rx="2" fill="url(#paint1_linear_1_849)"/>
<circle cx="28" cy="37" r="3" fill="url(#paint2_linear_1_849)"/>
<circle cx="28.1111" cy="8.11111" r="3.11111" fill="#FD8BFF"/>
<circle cx="51.1111" cy="43.1111" r="3.11111" transform="rotate(90 51.1111 43.1111)" fill="#FD8BFF"/>
<circle cx="5.11106" cy="43.1111" r="3.11111" transform="rotate(90 5.11106 43.1111)" fill="#FD8BFF"/>
<defs>
<linearGradient id="paint0_linear_1_849" x1="28" y1="1" x2="28" y2="45" gradientUnits="userSpaceOnUse">
<stop offset="0.0729167" stop-color="#C87FFB"/>
<stop offset="1" stop-color="#CD86FF" stop-opacity="0.2"/>
</linearGradient>
<linearGradient id="paint1_linear_1_849" x1="28" y1="17" x2="28" y2="33" gradientUnits="userSpaceOnUse">
<stop offset="0.015625" stop-color="#5CE7E7"/>
<stop offset="1" stop-color="#34E8DD"/>
</linearGradient>
<linearGradient id="paint2_linear_1_849" x1="28" y1="34" x2="28" y2="40" gradientUnits="userSpaceOnUse">
<stop offset="0.015625" stop-color="#5CE7E7"/>
<stop offset="1" stop-color="#34E8DD"/>
</linearGradient>
</defs>
</svg>
