<svg width="1882" height="952" viewBox="0 0 1882 952" fill="none" xmlns="http://www.w3.org/2000/svg" preserveAspectRatio="none meet">
<mask id="path-1-inside-1_1_642" fill="white">
<path fill-rule="evenodd" clip-rule="evenodd" d="M96.7237 0H890H992H1785.28C1788.13 0 1790.69 1.74206 1791.74 4.39335C1911.41 307.409 1911.41 644.591 1791.74 947.607C1790.69 950.258 1788.13 952 1785.28 952H992H890H96.7237C93.8731 952 91.312 950.258 90.2649 947.607C-29.4135 644.591 -29.4135 307.409 90.2649 4.39335C91.312 1.74206 93.8731 0 96.7237 0Z"/>
</mask>
<path fill-rule="evenodd" clip-rule="evenodd" d="M96.7237 0H890H992H1785.28C1788.13 0 1790.69 1.74206 1791.74 4.39335C1911.41 307.409 1911.41 644.591 1791.74 947.607C1790.69 950.258 1788.13 952 1785.28 952H992H890H96.7237C93.8731 952 91.312 950.258 90.2649 947.607C-29.4135 644.591 -29.4135 307.409 90.2649 4.39335C91.312 1.74206 93.8731 0 96.7237 0Z" fill="url(#paint0_linear_1_642)" fill-opacity="0.4"/>
<path d="M1791.74 4.39335L1790.81 4.76068V4.76069L1791.74 4.39335ZM1791.74 947.607L1790.81 947.239L1791.74 947.607ZM90.2649 947.607L89.3348 947.974L90.2649 947.607ZM90.2649 4.39335L91.195 4.76069V4.76069L90.2649 4.39335ZM890 -1H96.7237V1H890V-1ZM890 1H992V-1H890V1ZM992 1H1785.28V-1H992V1ZM1785.28 1C1787.72 1 1789.91 2.4912 1790.81 4.76068L1792.67 4.02601C1791.47 0.992925 1788.54 -1 1785.28 -1V1ZM1790.81 4.76069C1910.39 307.54 1910.39 644.46 1790.81 947.239L1792.67 947.974C1912.44 644.722 1912.44 307.277 1792.67 4.026L1790.81 4.76069ZM1790.81 947.239C1789.91 949.509 1787.72 951 1785.28 951V953C1788.54 953 1791.47 951.007 1792.67 947.974L1790.81 947.239ZM1785.28 951H992V953H1785.28V951ZM992 951H890V953H992V951ZM96.7237 953H890V951H96.7237V953ZM89.3348 947.974C90.5327 951.007 93.4626 953 96.7237 953V951C94.2836 951 92.0913 949.509 91.195 947.239L89.3348 947.974ZM89.3348 4.026C-30.4368 307.277 -30.4368 644.722 89.3348 947.974L91.195 947.239C-28.3902 644.46 -28.3902 307.54 91.195 4.76069L89.3348 4.026ZM96.7237 -1C93.4626 -1 90.5327 0.992925 89.3348 4.026L91.195 4.76069C92.0913 2.4912 94.2836 1 96.7237 1V-1Z" fill="url(#paint1_linear_1_642)" fill-opacity="0.5" mask="url(#path-1-inside-1_1_642)"/>
<defs>
<linearGradient id="paint0_linear_1_642" x1="1881" y1="438.033" x2="1.00005" y2="438.033" gradientUnits="userSpaceOnUse">
<stop stop-color="#102F5E"/>
<stop offset="0.511733" stop-color="#143866" stop-opacity="0"/>
<stop offset="1" stop-color="#18406E"/>
</linearGradient>
<linearGradient id="paint1_linear_1_642" x1="1899.5" y1="462.5" x2="1.00016" y2="462.5" gradientUnits="userSpaceOnUse">
<stop stop-color="#52FFFF"/>
<stop offset="0.502376" stop-color="#52FFFF" stop-opacity="0"/>
<stop offset="1" stop-color="#52FFFF"/>
</linearGradient>
</defs>
</svg>
