<svg viewBox="0 0 1024 1024" version="1.1" xmlns="http://www.w3.org/2000/svg" p-id="16253"
     xmlnsXlink="http://www.w3.org/1999/xlink" width="200" height="200">
     <path
          d="M512 949.138286c238.72 0 437.138286-197.997714 437.138286-437.138286 0-238.72-198.857143-437.138286-437.577143-437.138286C272.438857 74.861714 74.88 273.28 74.88 512c0 239.140571 197.997714 437.138286 437.138286 437.138286z m0-72.850286C309.705143 876.288 148.114286 714.276571 148.114286 512c0-201.874286 161.152-364.288 363.446857-364.288 201.856 0 364.269714 162.432 364.708571 364.288 0.420571 202.294857-162.432 364.288-364.288 364.288z m190.72-344.576c0-104.996571-86.582857-187.702857-183.003429-187.702857-3.858286 0-8.576 0.420571-12.013714 0.841143l30.445714-30.848c4.699429-5.138286 7.698286-11.995429 7.698286-19.712 0-14.994286-11.995429-27.428571-26.989714-27.428572-7.716571 0-14.994286 3.419429-19.712 8.576l-82.285714 83.986286c-9.874286 10.294857-10.715429 29.568 0 39.442286l83.145142 83.126857c4.699429 4.717714 11.574857 8.155429 18.834286 8.155428a26.88 26.88 0 0 0 27.008-27.008c0-7.716571-2.998857-14.573714-8.137143-19.712L495.725714 402.285714c4.297143-0.859429 10.294857-0.859429 15.853715-0.859428 73.289143 0 132.022857 58.294857 132.022857 131.565714 0 73.728-58.733714 132.864-132.022857 132.864-73.691429 0-131.986286-59.136-131.986286-132.864 0-15.853714-13.714286-28.708571-29.568-28.708571-15.872 0-29.586286 12.854857-29.586286 28.708571 0 105.874286 85.284571 192 191.158857 192 105.856 0 191.140571-86.125714 191.140572-193.28z">
     </path>
</svg>