<svg width="24" height="27" viewBox="0 0 24 27" fill="none" xmlns="http://www.w3.org/2000/svg">
<path fill-rule="evenodd" clip-rule="evenodd" d="M13.8931 24.4599C13.7772 24.0622 14.0057 23.6459 14.4034 23.5301C16.661 22.8725 18.6355 21.4728 20.0112 19.5534C21.3871 17.6339 22.0846 15.3054 21.9918 12.9397C21.899 10.5739 21.0212 8.30819 19.4994 6.50394C18.2559 5.02963 16.6411 3.93295 14.836 3.32118L15.4711 5.54412C15.5849 5.9424 15.3543 6.35751 14.956 6.47131C14.5578 6.5851 14.1427 6.35448 14.0289 5.95621L13.0328 2.47016C13.0065 2.38445 12.9952 2.29313 13.0016 2.19996C13.005 2.14977 13.0134 2.10031 13.0265 2.05231C13.0608 1.92645 13.1258 1.81612 13.2116 1.72785C13.2606 1.67735 13.3173 1.63321 13.3808 1.59733C13.394 1.58983 13.4075 1.58273 13.4212 1.57604L16.4146 0.0793439C16.7851 -0.105898 17.2356 0.0442696 17.4208 0.414755C17.6061 0.785238 17.4559 1.23574 17.0854 1.42098L15.7865 2.07046C17.6605 2.79392 19.3345 3.98191 20.6461 5.53684C22.3836 7.59692 23.3848 10.1825 23.4906 12.8809C23.5965 15.5792 22.801 18.236 21.2304 20.4272C19.6597 22.6186 17.4041 24.2183 14.8229 24.9702C14.4252 25.0861 14.0089 24.8576 13.8931 24.4599ZM9.60694 1.79025C9.72279 2.18793 9.49431 2.60423 9.09663 2.72008C6.83905 3.3777 4.86453 4.77738 3.48875 6.69681C2.11291 8.61631 1.41538 10.9447 1.5082 13.3105C1.60101 15.6763 2.47877 17.942 4.00056 19.7462C5.24406 21.2205 6.85892 22.3172 8.66398 22.929L8.02886 20.706C7.91506 20.3078 8.14568 19.8927 8.54396 19.7789C8.94223 19.6651 9.35735 19.8957 9.47114 20.294L10.4672 23.78C10.4935 23.8657 10.5048 23.957 10.4984 24.0502C10.495 24.1004 10.4866 24.1499 10.4735 24.1979C10.4392 24.3237 10.3742 24.434 10.2884 24.5223C10.2394 24.5728 10.1827 24.617 10.1192 24.6528C10.106 24.6603 10.0925 24.6674 10.0788 24.6741L7.08541 26.1708C6.71493 26.3561 6.26442 26.2059 6.07918 25.8354C5.89394 25.4649 6.04411 25.0144 6.41459 24.8292L7.71354 24.1797C5.83955 23.4563 4.16545 22.2683 2.85395 20.7133C1.11638 18.6532 0.115217 16.0677 0.00935137 13.3693C-0.0965141 10.6709 0.698965 8.01419 2.26959 5.82294C3.84027 3.63161 6.09588 2.03184 8.67712 1.27993C9.0748 1.16409 9.4911 1.39256 9.60694 1.79025Z" fill="white" fill-opacity="0.5"/>
<path d="M10.22 12.73L10.528 11.596C10.836 10.518 11.144 9.342 11.41 8.208H11.466C11.774 9.328 12.054 10.518 12.376 11.596L12.684 12.73H10.22ZM13.86 17H16.03L12.698 6.64H10.262L6.944 17H9.044L9.772 14.34H13.132L13.86 17Z" fill="white" fill-opacity="0.5"/>
</svg>
